<?xml version="1.0" encoding="utf-8"?>
<!-- Generator: Adobe Illustrator 27.5.0, SVG Export Plug-In . SVG Version: 6.00 Build 0)  -->
<svg version="1.1" xmlns="http://www.w3.org/2000/svg" xmlns:xlink="http://www.w3.org/1999/xlink" x="0px" y="0px"
	 viewBox="0 0 750 500" style="enable-background:new 0 0 750 500;" xml:space="preserve">
<g id="BACKGROUND">
	
		<radialGradient id="XMLID_00000113349783191134316700000010903275733490476979_" cx="218.967" cy="60.516" r="910.6769" gradientTransform="matrix(1 0 0 0.4005 0 36.2804)" gradientUnits="userSpaceOnUse">
		<stop  offset="0.1027" style="stop-color:#F4D63B"/>
		<stop  offset="0.1901" style="stop-color:#F4CC3A"/>
		<stop  offset="0.3388" style="stop-color:#F3B139"/>
		<stop  offset="0.5309" style="stop-color:#F18537"/>
		<stop  offset="0.7589" style="stop-color:#EF4834"/>
		<stop  offset="1" style="stop-color:#ED0031"/>
	</radialGradient>
	
		<rect id="XMLID_00000134965299817785000520000010450898474960126108_" style="fill:url(#XMLID_00000113349783191134316700000010903275733490476979_);" width="750" height="500"/>
</g>
<g id="OBJECTS">
	<g>
		<defs>
			<rect id="XMLID_00000045590610793003194580000011886015214280803713_" y="280.461" width="750" height="219.539"/>
		</defs>
		<clipPath id="XMLID_00000045580732566483482260000012511332663935629193_">
			<use xlink:href="#XMLID_00000045590610793003194580000011886015214280803713_"  style="overflow:visible;"/>
		</clipPath>
		
			<rect id="XMLID_00000139289867077370163910000005161676590942887586_" y="280.461" style="clip-path:url(#XMLID_00000045580732566483482260000012511332663935629193_);fill:#FFFFFF;" width="750" height="219.539"/>
		<g style="clip-path:url(#XMLID_00000045580732566483482260000012511332663935629193_);">
			<path style="fill:#1C1D1C;" d="M593.851,328.222c0,0,3.863-19.191,18.698-25.388c14.835-6.197,27.614-1.333,41.02-8.814
				c0,0-5.857,24.399-23.874,26.969C616.363,322.89,601.057,323.363,593.851,328.222z"/>
			<path style="fill:#1C1D1C;" d="M509.001,303.326c0,0,13.659-21.115,35.977-20.52c17.511,0.466,37.08,14.623,53.457,11.968
				c0,0-14.269,26.757-43.631,17.34C538.172,306.779,521.398,300.344,509.001,303.326z"/>
			<path style="fill:#1C1D1C;" d="M602.776,342.687c10.815-9.16,28.173-18.986,60.997-13.239c32.824,5.747,52.152,5.91,68.913-1.573
				c25.311-11.301,29.644-15.384,29.644-15.384s9.188,47.637-61.338,54.19c-24.798,2.304-32.036-7.852-66.463-17.363
				C619.849,345.262,602.776,342.687,602.776,342.687z"/>
			<path style="fill:#1C1D1C;" d="M-7.25,461.461c18.888-29.144,40.016-53.968,72.42-60.663
				c32.404-6.695,55.275-25.144,64.289-48.569c0,0-7.585,4.891-12.265,5.257c0,0,13.32-6.851,16.883-27.43
				c3.278-18.935-10.293-31.025-10.293-31.025s0.756,23.132-24.675,38.519c-25.43,15.388-68.046,12.284-94.259,51.633
				C-21.363,428.532-7.25,461.461-7.25,461.461z"/>
			<path style="fill:#1C1D1C;" d="M325.549,434.404c0,0-10.975-29.544,3.848-60.195c13.948-28.841,41.902-25.567,52.283-35.594
				c10.381-10.028,12.386-27.493,12.386-27.493s21.869,23.384,8.209,48.447c-9.608,17.628-40.607,27.624-54.779,44.49
				C334.418,419.622,325.549,434.404,325.549,434.404z"/>
			<path style="fill:#1C1D1C;" d="M-54.062,511.93c0,0,11.461-20.65,28.39-45.614c16.929-24.964,95.134-95.734,169.052-100.835
				c73.918-5.101,100.852,13.07,128.037,8.728c17.773-2.839,27.43-18.812,27.43-18.812s8.105,40.695-33.348,51.198
				c-26.899,6.816-50.482,5.381-65.114,9.924c-27.034,8.395-24.243,32.005-8.428,31.484c9.852-0.324,22.884-1.935,36.974-8.424
				c36.706-16.904,53.57-33.503,66.219-36.428c0,0-8.528,27.968,6.626,37.277c9.353,5.745,21.232,5.473,36.243-8.891
				c9.29-8.89,16.907-19.66,32.918-34.658c45.64-42.753,97.323-33.922,97.323-33.922s-26.523,18.857-33.427,29.994
				c-10.844,17.495-5.459,36.676,24.895,37.969c36.563,1.557,77.397-22.455,86.65-39.046c7.756-13.907,1.805-23.571-11.739-21.592
				c-16.731,2.445-32.522,28.848-32.522,28.848s-5.918-19.888,7.377-36.487c18.455-23.042,44.71-27.523,77.672-21.539
				c30.74,5.581,92.429,40.709,140.442,14.04c48.795-27.103,57.675-71.004,57.675-71.004V514.12L-54.062,511.93z"/>
			<linearGradient id="SVGID_1_" gradientUnits="userSpaceOnUse" x1="368.7858" y1="497.241" x2="388.8535" y2="361.0664">
				<stop  offset="0" style="stop-color:#ED0031"/>
				<stop  offset="0.2411" style="stop-color:#EF3E34"/>
				<stop  offset="0.5781" style="stop-color:#F28F38"/>
				<stop  offset="0.8175" style="stop-color:#F3C23A"/>
				<stop  offset="0.9347" style="stop-color:#F4D63B"/>
			</linearGradient>
			<path style="fill:url(#SVGID_1_);" d="M774.854,316.314c-0.857,58.088-1.727,116.176-2.584,174.264
				c-0.051,3.699-0.166,7.52-0.525,11.273H-35.533c0,0,0,0,0.013-0.013c48.524-92.473,150.855-136.826,224.364-129.588
				c42.933,4.224,82.489,21.874,102.792,1.991c-1.714,3.672-3.659,6.847-5.808,9.592c-21.249,27.066-62.827,12.753-96.421,26.784
				c-10.375,4.345-22.209,17.784-21.505,29.017c0.831,13.103,18.691,16.506,31.675,14.609c32.648-4.789,60.844-20.569,88.668-40.882
				c0.026-0.014,0.039-0.027,0.039-0.027v0.013c-2.137,10.157-0.051,30.726,14.098,35.246c14.149,4.533,29.731-1.91,41.091-11.489
				c11.36-9.578,19.842-22.076,30.23-32.69c18.23-18.632,42.524-31.183,68.212-35.488c4.03-0.673,8.085-1.143,12.166-1.413
				c0,0-0.013,0-0.051,0.014c-18.819,9.255-40.516,23.085-39.671,44.044c0.486,12.148,9.288,22.856,20.149,28.291
				c10.874,5.435,23.462,6.336,35.59,5.556c28.925-1.843,46.195-8.461,68.711-26.716c13.816-11.206,31.087-35.044,20.443-49.304
				c-6.844-9.188-14.775-11.489-25.432-7.251c-10.631,4.224-18.806,12.888-26.379,21.47c-0.013,0.013-0.013,0.027-0.013,0.027
				c3.198-20.085,22.426-34.707,42.435-38.34c20.008-3.646,40.541,1.56,59.769,8.193s38.187,14.771,58.375,17.26
				c42.089,5.206,86.276-17.313,106.834-54.402C774.854,316.327,774.854,316.314,774.854,316.314z"/>
			
				<linearGradient id="SVGID_00000092434749117466807120000008193690529199912105_" gradientUnits="userSpaceOnUse" x1="359.4855" y1="578.946" x2="391.7439" y2="467.6023">
				<stop  offset="0" style="stop-color:#ED0031"/>
				<stop  offset="0.2411" style="stop-color:#EF3E34"/>
				<stop  offset="0.5781" style="stop-color:#F28F38"/>
				<stop  offset="0.8175" style="stop-color:#F3C23A"/>
				<stop  offset="0.9347" style="stop-color:#F4D63B"/>
			</linearGradient>
			<path style="fill:url(#SVGID_00000092434749117466807120000008193690529199912105_);" d="M767.882,366.008v133.92l-770.977,1.924
				c0,0,0.991-4.157,1.003-4.184c8.405-39.201,29.948-64.626,72.396-84.119c42.473-19.506,77.679-22.143,77.679-22.143
				s-31.496,12.861-30.55,44.178c0.947,31.304,54.933,48.967,99.952,33.416c45.019-15.551,52.861-31.142,52.861-31.142
				s3.736,4.654,9.16,21.322c5.411,16.681,30.064,22.143,57.53,4.56c27.454-17.582,38.494-41.636,50.635-47.824
				c0,0-24.294,37.25,14.929,53.084c39.236,15.82,105.594,6.202,138.459-15.161c30.294-19.708,39.735-39.429,42.588-51.281v-0.013
				c1.65-6.901,1.075-11.139,1.075-11.139s21.633,8.771,13.624,34.56c-8.008,25.802,37.65,20.071,47.321,1.641
				c9.441-17.999-4.043-35.367-4.669-36.174c1.126,0.874,34.503,26.582,77.846,3.861
				C762.842,372.182,767.882,366.008,767.882,366.008z"/>
			
				<linearGradient id="SVGID_00000096017730413833378400000015701316368420720810_" gradientUnits="userSpaceOnUse" x1="273.4463" y1="346.3375" x2="128.5742" y2="411.9938">
				<stop  offset="0" style="stop-color:#DA001B"/>
				<stop  offset="0.1245" style="stop-color:#DB0D1D"/>
				<stop  offset="0.3545" style="stop-color:#DC2F23"/>
				<stop  offset="0.6645" style="stop-color:#DE662C"/>
				<stop  offset="1" style="stop-color:#E1A937"/>
			</linearGradient>
			<path style="fill:url(#SVGID_00000096017730413833378400000015701316368420720810_);" d="M291.636,374.241
				c-27.915,33.595-72.003-3.457-161.319,14.233C13.208,411.669-34.458,500.291-35.52,501.838
				c48.524-92.473,150.855-136.826,224.364-129.588C231.778,376.474,271.334,394.123,291.636,374.241z"/>
			
				<linearGradient id="SVGID_00000157266307881661756130000009726801942679104433_" gradientUnits="userSpaceOnUse" x1="156.6715" y1="422.6468" x2="288.2459" y2="422.6468">
				<stop  offset="0" style="stop-color:#DA001B"/>
				<stop  offset="0.1245" style="stop-color:#DB0D1D"/>
				<stop  offset="0.3545" style="stop-color:#DC2F23"/>
				<stop  offset="0.6645" style="stop-color:#DE662C"/>
				<stop  offset="1" style="stop-color:#E1A937"/>
			</linearGradient>
			<path style="fill:url(#SVGID_00000157266307881661756130000009726801942679104433_);" d="M288.246,413.361
				c-1.151,1.049-27.569,24.739-60.37,39.241c-33.543,14.825-71.948,12.04-71.193-15.941c0.768-27.981,32.29-38.044,82.732-39.645
				c27.07-0.861,40.132-7.358,46.413-13.183c-21.249,27.066-62.827,12.753-96.421,26.784c-10.375,4.345-22.209,17.784-21.505,29.017
				c0.831,13.103,18.691,16.506,31.675,14.609C232.225,449.454,260.421,433.674,288.246,413.361z"/>
			
				<linearGradient id="SVGID_00000032627803071354281630000010627499791900509853_" gradientUnits="userSpaceOnUse" x1="284.0125" y1="415.7009" x2="454.0819" y2="415.7009">
				<stop  offset="0" style="stop-color:#DA001B"/>
				<stop  offset="0.1245" style="stop-color:#DB0D1D"/>
				<stop  offset="0.3545" style="stop-color:#DC2F23"/>
				<stop  offset="0.6645" style="stop-color:#DE662C"/>
				<stop  offset="1" style="stop-color:#E1A937"/>
			</linearGradient>
			<path style="fill:url(#SVGID_00000032627803071354281630000010627499791900509853_);" d="M454.082,367.514
				c0,0-0.013,0-0.038,0.014c-1.612,0.363-55.695,7.719-82.413,49.438c-25.887,40.423-55.428,56.198-76.076,41.548
				c-20.635-14.65-7.309-45.153-7.309-45.153l0.039-0.014c-2.137,10.157-0.051,30.726,14.098,35.246
				c14.149,4.533,29.731-1.91,41.091-11.489c11.36-9.578,19.842-22.076,30.23-32.69c18.23-18.632,42.524-31.183,68.212-35.488
				L454.082,367.514z"/>
			
				<linearGradient id="SVGID_00000127725602133798620930000015812683528875054746_" gradientUnits="userSpaceOnUse" x1="414.1031" y1="403.1507" x2="567.1682" y2="403.1507">
				<stop  offset="0" style="stop-color:#DA001B"/>
				<stop  offset="0.1245" style="stop-color:#DB0D1D"/>
				<stop  offset="0.3545" style="stop-color:#DC2F23"/>
				<stop  offset="0.6645" style="stop-color:#DE662C"/>
				<stop  offset="1" style="stop-color:#E1A937"/>
			</linearGradient>
			<path style="fill:url(#SVGID_00000127725602133798620930000015812683528875054746_);" d="M566.386,385.432
				c-7.837,25.548-35.794,55.718-93.468,61.961c-51.681,5.595-65.409-28.629-56.112-48.646
				c11.873-25.565,35.779-30.762,37.224-31.22c-18.819,9.255-48.353,40.131-23.733,61.841c9.118,8.04,21.064,9.37,33.192,8.59
				c28.925-1.843,59.531-10.338,79.701-31.156c14.076-14.529,17.156-25.235,15.091-32.595c-3.126-11.141-29.945-18.81-50.852,9.437
				c4.938-12.376,15.328-21.476,32.784-24.815C560.603,354.929,570.075,373.406,566.386,385.432z"/>
			
				<linearGradient id="SVGID_00000159450331491840995780000009703007195748225471_" gradientUnits="userSpaceOnUse" x1="507.4288" y1="349.9991" x2="774.8414" y2="349.9991">
				<stop  offset="0" style="stop-color:#DA001B"/>
				<stop  offset="0.1245" style="stop-color:#DB0D1D"/>
				<stop  offset="0.3545" style="stop-color:#DC2F23"/>
				<stop  offset="0.6645" style="stop-color:#DE662C"/>
				<stop  offset="1" style="stop-color:#E1A937"/>
			</linearGradient>
			<path style="fill:url(#SVGID_00000159450331491840995780000009703007195748225471_);" d="M774.841,316.354
				c-0.601,1.803-20.098,59.353-85.739,64.734c-50.213,4.116-67.381-18.443-117.555-29.273
				c-49.496-10.681-63.722,30.658-64.106,31.802c-0.013,0.013-0.013,0.027-0.013,0.027c3.198-20.085,22.426-34.707,42.435-38.34
				c20.008-3.646,40.541,1.56,59.769,8.193s38.187,14.771,58.375,17.26C710.096,375.962,754.283,353.443,774.841,316.354z"/>
			
				<linearGradient id="SVGID_00000026150003045883066140000015854313757331124651_" gradientUnits="userSpaceOnUse" x1="171.5289" y1="441.6372" x2="57.7135" y2="444.9847">
				<stop  offset="0" style="stop-color:#DA001B"/>
				<stop  offset="0.1245" style="stop-color:#DB0D1D"/>
				<stop  offset="0.3545" style="stop-color:#DC2F23"/>
				<stop  offset="0.6645" style="stop-color:#DE662C"/>
				<stop  offset="1" style="stop-color:#E1A937"/>
			</linearGradient>
			<path style="fill:url(#SVGID_00000026150003045883066140000015854313757331124651_);" d="M270.246,437.858
				c0,0-3.429,29.932-65.321,41.985c-61.893,12.04-90.639-14.959-96.127-35.125c-5.488-20.152,10.465-36.887,10.465-36.887
				s-5.527-3.377-54.716,17.986c-48.422,21.026-66.102,70.316-66.639,71.85c8.405-39.201,29.948-64.626,72.396-84.119
				c42.473-19.506,77.679-22.143,77.679-22.143s-31.496,12.861-30.55,44.178c0.947,31.304,54.933,48.967,99.952,33.416
				C262.404,453.449,270.246,437.858,270.246,437.858z"/>
			
				<linearGradient id="SVGID_00000058568141965057215460000006607767792182752405_" gradientUnits="userSpaceOnUse" x1="270.2462" y1="449.0866" x2="583.5473" y2="449.0866">
				<stop  offset="0" style="stop-color:#DA001B"/>
				<stop  offset="0.1245" style="stop-color:#DB0D1D"/>
				<stop  offset="0.3545" style="stop-color:#DC2F23"/>
				<stop  offset="0.6645" style="stop-color:#DE662C"/>
				<stop  offset="1" style="stop-color:#E1A937"/>
			</linearGradient>
			<path style="fill:url(#SVGID_00000058568141965057215460000006607767792182752405_);" d="M583.547,402.558
				c-3.006,22.587-15.173,57.817-52.682,77.013c-43.663,22.358-98.504,18.397-126.85,5.995
				c-31.957-13.981-31.987-41.091-30.772-43.431c-1.177,2.004-11.271,18.497-34.682,32.945c-24.985,15.43-48.524,13.641-58.183,0
				c-4.96-6.998-4.345-16.425-5.641-24.135c-1.227-7.304-4.491-13.088-4.491-13.088s3.736,4.654,9.16,21.322
				c5.411,16.681,30.064,22.143,57.53,4.56c27.454-17.582,38.494-41.636,50.635-47.824c0,0-24.294,37.25,14.929,53.084
				c39.236,15.82,105.594,6.202,138.459-15.161C571.253,434.131,580.694,414.41,583.547,402.558z"/>
			
				<linearGradient id="SVGID_00000013904772414283264580000007382845120296784264_" gradientUnits="userSpaceOnUse" x1="655.7944" y1="458.3536" x2="667.9495" y2="416.3987">
				<stop  offset="0" style="stop-color:#DA001B"/>
				<stop  offset="0.1245" style="stop-color:#DB0D1D"/>
				<stop  offset="0.3545" style="stop-color:#DC2F23"/>
				<stop  offset="0.6645" style="stop-color:#DE662C"/>
				<stop  offset="1" style="stop-color:#E1A937"/>
			</linearGradient>
			<path style="fill:url(#SVGID_00000013904772414283264580000007382845120296784264_);" d="M767.882,366.008v18.07
				c-14.993,0.915-29.831,15.177-51.221,26.733c-34.746,18.793-58.223,4.178-59.464,2.322c0.819,1.655,5.559,31.405-31.172,40.659
				c-23.715,5.975-42.546-4.867-32.171-33.58c6.379-17.653-9.232-28.805-9.232-28.805s21.633,8.771,13.624,34.56
				c-8.008,25.802,37.65,20.071,47.321,1.641c9.441-17.999-4.043-35.367-4.669-36.174c1.126,0.874,34.503,26.582,77.846,3.861
				C762.842,372.182,767.882,366.008,767.882,366.008z"/>
			
				<linearGradient id="SVGID_00000075885443698939470980000006288209114452447366_" gradientUnits="userSpaceOnUse" x1="317.1353" y1="-21.0445" x2="336.3358" y2="-55.2101" gradientTransform="matrix(-0.5785 -0.8157 0.8157 -0.5785 775.2151 542.3777)">
				<stop  offset="0" style="stop-color:#DA001B"/>
				<stop  offset="0.1245" style="stop-color:#DB0D1D"/>
				<stop  offset="0.3545" style="stop-color:#DC2F23"/>
				<stop  offset="0.6645" style="stop-color:#DE662C"/>
				<stop  offset="1" style="stop-color:#E1A937"/>
			</linearGradient>
			<path style="fill:url(#SVGID_00000075885443698939470980000006288209114452447366_);" d="M587.77,299.76
				c-11.914,9.085-23.087,10.652-35.568,5.189c-14.434-6.318-28.282-8.248-28.282-8.248s16.186-14.843,33.069-6.915
				C579.922,300.555,587.77,299.76,587.77,299.76z"/>
			
				<linearGradient id="SVGID_00000136385068514081815170000008753249274017094548_" gradientUnits="userSpaceOnUse" x1="340.2107" y1="-82.0648" x2="353.0335" y2="-104.8817" gradientTransform="matrix(-0.8786 -0.4776 0.4776 -0.8786 972.5983 394.6832)">
				<stop  offset="0" style="stop-color:#DA001B"/>
				<stop  offset="0.1245" style="stop-color:#DB0D1D"/>
				<stop  offset="0.3545" style="stop-color:#DC2F23"/>
				<stop  offset="0.6645" style="stop-color:#DE662C"/>
				<stop  offset="1" style="stop-color:#E1A937"/>
			</linearGradient>
			<path style="fill:url(#SVGID_00000136385068514081815170000008753249274017094548_);" d="M643.546,302.759
				c-4.472,8.951-10.711,13.177-19.801,13.571c-10.513,0.456-19.383,3.371-19.383,3.371s5.34-13.66,17.795-13.871
				C639.074,305.544,643.546,302.759,643.546,302.759z"/>
			
				<linearGradient id="SVGID_00000163754431785350570480000005442634473550540931_" gradientUnits="userSpaceOnUse" x1="-32.6876" y1="290.096" x2="35.3281" y2="259.7647" gradientTransform="matrix(1.4156 -0.1735 0.7262 1.8625 -157.4187 -117.8973)">
				<stop  offset="0" style="stop-color:#DA001B"/>
				<stop  offset="0.1245" style="stop-color:#DB0D1D"/>
				<stop  offset="0.3545" style="stop-color:#DC2F23"/>
				<stop  offset="0.6645" style="stop-color:#DE662C"/>
				<stop  offset="1" style="stop-color:#E1A937"/>
			</linearGradient>
			<path style="fill:url(#SVGID_00000163754431785350570480000005442634473550540931_);" d="M99.78,347.667
				c-21.836,9.827-45.838,10.013-72.21,29.566c-31.446,23.315-27.902,62.346-27.902,62.346s20.57-30.973,62.68-47.909
				c41.897-16.851,50.351-28.712,50.351-28.712s-8.398,6.839-28.685,9.454c0,0,17.012-10.833,29.425-21.194
				c16.341-13.64,12.796-32.917,12.796-32.917S126.476,335.652,99.78,347.667z"/>
			
				<linearGradient id="SVGID_00000153690042581943019390000009830592790898625202_" gradientUnits="userSpaceOnUse" x1="151.3749" y1="308.326" x2="203.4542" y2="285.1015" gradientTransform="matrix(1.238 -0.1454 0.9019 1.77 -135.9066 -117.8753)">
				<stop  offset="0" style="stop-color:#DA001B"/>
				<stop  offset="0.1245" style="stop-color:#DB0D1D"/>
				<stop  offset="0.3545" style="stop-color:#DC2F23"/>
				<stop  offset="0.6645" style="stop-color:#DE662C"/>
				<stop  offset="1" style="stop-color:#E1A937"/>
			</linearGradient>
			<path style="fill:url(#SVGID_00000153690042581943019390000009830592790898625202_);" d="M382.023,346.019
				c-12.547,7.551-28.54,5.81-41.771,22.644c-13.231,16.833-11.32,49.125-11.32,49.125s9.727-24.418,34.152-37.293
				c14.755-7.778,26.965-13.924,32.048-23.724c6.849-13.204,0.438-33.743,0.438-33.743S397.363,336.788,382.023,346.019z"/>
			
				<linearGradient id="SVGID_00000029757424597282800920000012596321709900203406_" gradientUnits="userSpaceOnUse" x1="679.0013" y1="366.6551" x2="684.2811" y2="337.3767">
				<stop  offset="0" style="stop-color:#DA001B"/>
				<stop  offset="0.1245" style="stop-color:#DB0D1D"/>
				<stop  offset="0.3545" style="stop-color:#DC2F23"/>
				<stop  offset="0.6645" style="stop-color:#DE662C"/>
				<stop  offset="1" style="stop-color:#E1A937"/>
			</linearGradient>
			<path style="fill:url(#SVGID_00000029757424597282800920000012596321709900203406_);" d="M616.401,340.149
				c41.958-0.753,51.303,23.11,83.775,19.851c55.037-5.525,54.063-38.515,54.063-38.515s-37.095,26.164-72.16,16.844
				C637.005,326.347,616.401,340.149,616.401,340.149z"/>
		</g>
	</g>
	<g>
		<g>
			<polygon style="fill:#FFFFFF;" points="611.433,126.59 624.964,102.534 606.493,106.419 613.893,95.279 660.424,85.705 
				652.315,99.576 640.915,100.919 632.209,127.133 			"/>
			
				<linearGradient id="SVGID_00000168079152688039366590000016894207787725665470_" gradientUnits="userSpaceOnUse" x1="642.1168" y1="126.6127" x2="630.8444" y2="94.5298">
				<stop  offset="0" style="stop-color:#FFFFFF;stop-opacity:0"/>
				<stop  offset="1" style="stop-color:#53575F"/>
			</linearGradient>
			<path style="opacity:0.44;fill:url(#SVGID_00000168079152688039366590000016894207787725665470_);" d="M610.557,100.3
				l-4.064,6.118l18.471-3.885l-13.531,24.056l20.775,0.543l8.706-26.214l11.401-1.342l6.856-11.729
				C642.987,92.067,626.855,96.463,610.557,100.3z"/>
		</g>
		
			<radialGradient id="SVGID_00000082327120935374914950000015146484291969764006_" cx="323.3039" cy="251.5785" r="443.0033" gradientTransform="matrix(0.9554 -0.0015 7.040981e-05 0.0346 -23.3209 239.8385)" gradientUnits="userSpaceOnUse">
			<stop  offset="0.6402" style="stop-color:#222A31"/>
			<stop  offset="1" style="stop-color:#FFFFFF;stop-opacity:0"/>
		</radialGradient>
		<path style="fill:url(#SVGID_00000082327120935374914950000015146484291969764006_);" d="M700.207,246.602
			c0,5.964-131.719,10.8-294.202,10.8s-319.891-4.835-319.891-10.8c0-5.965,157.408-10.8,319.891-10.8
			S700.207,240.637,700.207,246.602z"/>
		<g>
			<polygon style="fill:#1C1D1C;" points="132.851,208.182 168.051,234.436 219.324,234.385 264.35,227.356 301.7,229.723 
				448.633,223.316 509.386,235.802 564.37,234.357 612.679,227.857 621.003,227.1 635.987,216.485 618.446,141.267 
				466.795,135.537 199.983,160.185 			"/>
			
				<linearGradient id="SVGID_00000013156808201609947680000014743998439059151237_" gradientUnits="userSpaceOnUse" x1="386.6656" y1="199.4713" x2="390.8274" y2="164.5122">
				<stop  offset="0" style="stop-color:#FFFFFF;stop-opacity:0"/>
				<stop  offset="1" style="stop-color:#53575F"/>
			</linearGradient>
			<polygon style="fill:url(#SVGID_00000013156808201609947680000014743998439059151237_);" points="132.851,208.182 
				168.051,234.436 219.324,234.385 264.35,227.356 301.7,229.723 448.633,223.316 509.386,235.802 564.37,234.357 612.679,227.857 
				621.003,227.1 637.669,214.369 618.446,133.266 466.795,135.537 199.983,152.184 			"/>
		</g>
		<g>
			
				<ellipse transform="matrix(0.9869 -0.1613 0.1613 0.9869 -25.9179 92.9758)" style="fill:#1C1D1C;" cx="559.575" cy="206.087" rx="45.707" ry="45.707"/>
			<g>
				
					<ellipse transform="matrix(0.9564 -0.292 0.292 0.9564 -35.7906 172.3852)" style="fill:#6E6E6E;" cx="559.575" cy="206.087" rx="29.76" ry="29.76"/>
				<path style="fill:#FF1213;" d="M545.776,186.074l3.344,3.344c1.244,1.244,1.254,3.255,0.024,4.512
					c-3.113,3.18-5.036,7.527-5.036,12.329c0,1.366,0.159,2.694,0.457,3.968c0.464,1.988-1.1,3.875-3.141,3.875h-4.488
					c-1.47,0-2.74-1.001-3.119-2.421c-0.566-2.124-0.869-4.356-0.869-6.659c0-7.544,3.233-14.329,8.386-19.055
					C542.599,184.806,544.561,184.86,545.776,186.074z"/>
				
					<radialGradient id="SVGID_00000013905472129598075350000016530575172666249874_" cx="560.0068" cy="209.1066" r="35.2484" gradientUnits="userSpaceOnUse">
					<stop  offset="0" style="stop-color:#FFFFFF;stop-opacity:0"/>
					<stop  offset="1" style="stop-color:#44424D"/>
				</radialGradient>
				<circle style="fill:url(#SVGID_00000013905472129598075350000016530575172666249874_);" cx="559.575" cy="206.087" r="29.76"/>
				
					<radialGradient id="SVGID_00000139974956036987235500000004123902612948099504_" cx="553.7678" cy="209.7081" r="35.2484" gradientUnits="userSpaceOnUse">
					<stop  offset="0" style="stop-color:#FFFFFF;stop-opacity:0"/>
					<stop  offset="1" style="stop-color:#44424D"/>
				</radialGradient>
				<path style="fill:url(#SVGID_00000139974956036987235500000004123902612948099504_);" d="M559.575,176.327
					c-16.436,0-29.76,13.324-29.76,29.76c0,16.436,13.324,29.76,29.76,29.76c16.436,0,29.76-13.324,29.76-29.76
					C589.335,189.651,576.011,176.327,559.575,176.327z M559.575,229.535c-12.95,0-23.448-10.498-23.448-23.448
					c0-12.95,10.498-23.448,23.448-23.448c12.95,0,23.448,10.498,23.448,23.448C583.023,219.037,572.525,229.535,559.575,229.535z"
					/>
			</g>
			<g>
				<path style="fill:#B6B6B6;" d="M598.465,203.9l-28.88,0.17l-5.55,2.85l-0.28-2.91l-1.7-2.31l0.01,0.06l-2.86-0.57l-2.75,0.97
					l0.23-6.22l-11.94-25.88c1.79-0.74,3.65-1.35,5.57-1.81c0.1-0.03,0.2-0.05,0.31-0.07l6.99,23.66l1.81-0.13l3.49-24.42
					c0.11,0,0.21,0.01,0.32,0.02c1.98,0.17,3.9,0.51,5.76,0.98l-8.06,27.34l1.11,6.03l6.01-1.57l21.41-18.97
					c1.28,1.51,2.43,3.13,3.46,4.83c0.04,0.07,0.08,0.14,0.12,0.21l-20.8,13.63l0.65,1.7l24.73-3.75c0.04,0.12,0.06,0.24,0.09,0.36
					C598.095,199.99,598.355,201.92,598.465,203.9z"/>
				<path style="fill:#B6B6B6;" d="M559.785,210.61l-3.87,4.87l-5.82,28.39c-1.93-0.48-3.8-1.1-5.6-1.86
					c-0.1-0.04-0.21-0.09-0.31-0.14l8.55-23.64l-1.54-0.96l-17.55,17.86l-0.21-0.18c-1.46-1.32-2.83-2.76-4.08-4.3l22.95-17.44
					l2.72-5.6l1.97,2.15L559.785,210.61z"/>
				<path style="fill:#B6B6B6;" d="M593.115,225.9c-1.01,1.71-2.15,3.33-3.41,4.86c-0.06,0.08-0.13,0.16-0.19,0.23l-20.22-15.11
					l-1.37,1.19l12.1,22.17c-0.08,0.05-0.17,0.11-0.26,0.16c-1.69,1.03-3.45,1.93-5.3,2.68l-10.1-27.24l-4.58-4.23l2.64-1.26
					l1.61-2.43l3.55,5.13L593.115,225.9z"/>
				<path style="fill:#B6B6B6;" d="M520.685,208.32l28.52-2.95l5.82,2.24l-0.04-2.92l1.47-2.53l-6.17-0.91l-23.3-16.5
					c-1.07,1.64-2.03,3.36-2.84,5.15c-0.04,0.09-0.08,0.17-0.12,0.26v0.01l22.07,11.24l-0.46,1.76l-24.8-1.04L520.685,208.32z"/>
			</g>
			<g>
				<circle style="fill:#C7C7C7;" cx="559.575" cy="206.087" r="9.515"/>
				<path style="fill:#50575B;" d="M550.867,206.087c0,4.809,3.898,8.707,8.707,8.707c4.809,0,8.707-3.898,8.707-8.707
					c0-4.809-3.898-8.707-8.707-8.707C554.766,197.38,550.867,201.278,550.867,206.087z"/>
				<path style="fill:#1C1D1C;" d="M551.996,206.087c0,4.186,3.393,7.579,7.579,7.579c4.186,0,7.579-3.393,7.579-7.579
					c0-4.186-3.393-7.579-7.579-7.579C555.389,198.508,551.996,201.901,551.996,206.087z"/>
				<path style="fill:#1C1D1C;" d="M555.251,206.087c0,2.388,1.936,4.324,4.324,4.324c2.388,0,4.323-1.936,4.323-4.324
					c0-2.388-1.936-4.323-4.323-4.323C557.187,201.763,555.251,203.699,555.251,206.087z"/>
				<path style="fill:#B6B6B6;" d="M553.675,206.087c0,3.258,2.641,5.899,5.899,5.899c3.258,0,5.899-2.641,5.899-5.899
					c0-3.258-2.641-5.899-5.899-5.899C556.317,200.188,553.675,202.829,553.675,206.087z"/>
			</g>
			<path style="fill:#434343;" d="M559.575,164.662c-22.878,0-41.424,18.546-41.424,41.425c0,22.878,18.546,41.424,41.424,41.424
				c22.878,0,41.424-18.546,41.424-41.424C600.999,183.209,582.453,164.662,559.575,164.662z M559.575,240.363
				c-18.93,0-34.276-15.346-34.276-34.276s15.346-34.276,34.276-34.276c18.93,0,34.276,15.346,34.276,34.276
				S578.505,240.363,559.575,240.363z"/>
			<path style="fill:#B6B6B6;" d="M559.575,171.811c-18.93,0-34.276,15.346-34.276,34.276c0,18.93,15.346,34.276,34.276,34.276
				c18.93,0,34.276-15.346,34.276-34.276C593.851,187.157,578.505,171.811,559.575,171.811z M559.575,238.764
				c-18.047,0-32.677-14.63-32.677-32.677s14.63-32.677,32.677-32.677c18.047,0,32.677,14.63,32.677,32.677
				S577.622,238.764,559.575,238.764z"/>
			
				<linearGradient id="SVGID_00000150809044872214437860000000210530606275945140_" gradientUnits="userSpaceOnUse" x1="550.2056" y1="239.1254" x2="565.4303" y2="190.5968">
				<stop  offset="0" style="stop-color:#FFFFFF;stop-opacity:0"/>
				<stop  offset="1" style="stop-color:#53575F"/>
			</linearGradient>
			<circle style="fill:url(#SVGID_00000150809044872214437860000000210530606275945140_);" cx="561.127" cy="204.313" r="45.707"/>
		</g>
		<g>
			
				<ellipse transform="matrix(0.9864 -0.1641 0.1641 0.9864 -30.8897 38.3204)" style="fill:#1C1D1C;" cx="216.448" cy="206.087" rx="45.707" ry="45.707"/>
			<g>
				
					<ellipse transform="matrix(0.9564 -0.292 0.292 0.9564 -50.7459 72.1879)" style="fill:#6E6E6E;" cx="216.448" cy="206.087" rx="29.76" ry="29.76"/>
				<path style="fill:#FF1213;" d="M202.649,186.074l3.344,3.344c1.244,1.244,1.254,3.255,0.024,4.512
					c-3.113,3.18-5.036,7.527-5.036,12.329c0,1.366,0.159,2.694,0.457,3.968c0.464,1.988-1.1,3.875-3.141,3.875h-4.488
					c-1.47,0-2.74-1.001-3.119-2.421c-0.566-2.124-0.869-4.356-0.869-6.659c0-7.544,3.233-14.329,8.386-19.055
					C199.472,184.806,201.435,184.86,202.649,186.074z"/>
				
					<radialGradient id="SVGID_00000059994017260149773570000014812526088069673869_" cx="216.8801" cy="209.1066" r="35.2484" gradientUnits="userSpaceOnUse">
					<stop  offset="0" style="stop-color:#FFFFFF;stop-opacity:0"/>
					<stop  offset="1" style="stop-color:#44424D"/>
				</radialGradient>
				<circle style="fill:url(#SVGID_00000059994017260149773570000014812526088069673869_);" cx="216.448" cy="206.087" r="29.76"/>
				
					<radialGradient id="SVGID_00000083767525768696954750000005782704337933723032_" cx="210.6411" cy="209.7081" r="35.2484" gradientUnits="userSpaceOnUse">
					<stop  offset="0" style="stop-color:#FFFFFF;stop-opacity:0"/>
					<stop  offset="1" style="stop-color:#44424D"/>
				</radialGradient>
				<path style="fill:url(#SVGID_00000083767525768696954750000005782704337933723032_);" d="M216.448,176.327
					c-16.436,0-29.76,13.324-29.76,29.76c0,16.436,13.324,29.76,29.76,29.76c16.436,0,29.76-13.324,29.76-29.76
					C246.208,189.651,232.884,176.327,216.448,176.327z M216.448,229.535c-12.95,0-23.448-10.498-23.448-23.448
					c0-12.95,10.498-23.448,23.448-23.448c12.95,0,23.448,10.498,23.448,23.448C239.896,219.037,229.398,229.535,216.448,229.535z"
					/>
			</g>
			<g>
				<path style="fill:#B6B6B6;" d="M255.339,203.9l-28.88,0.17l-5.55,2.85l-0.28-2.91l-1.7-2.31l0.01,0.06l-2.86-0.57l-2.75,0.97
					l0.23-6.22l-11.94-25.88c1.79-0.74,3.65-1.35,5.57-1.81c0.1-0.03,0.2-0.05,0.31-0.07l6.99,23.66l1.81-0.13l3.49-24.42
					c0.11,0,0.21,0.01,0.32,0.02c1.98,0.17,3.9,0.51,5.76,0.98l-8.06,27.34l1.11,6.03l6.01-1.57l21.41-18.97
					c1.28,1.51,2.43,3.13,3.46,4.83c0.04,0.07,0.08,0.14,0.12,0.21l-20.8,13.63l0.65,1.7l24.73-3.75c0.04,0.12,0.06,0.24,0.09,0.36
					C254.969,199.99,255.229,201.92,255.339,203.9z"/>
				<path style="fill:#B6B6B6;" d="M216.659,210.61l-3.87,4.87l-5.82,28.39c-1.93-0.48-3.8-1.1-5.6-1.86
					c-0.1-0.04-0.21-0.09-0.31-0.14l8.55-23.64l-1.54-0.96l-17.55,17.86l-0.21-0.18c-1.46-1.32-2.83-2.76-4.08-4.3l22.95-17.44
					l2.72-5.6l1.97,2.15L216.659,210.61z"/>
				<path style="fill:#B6B6B6;" d="M249.989,225.9c-1.01,1.71-2.15,3.33-3.41,4.86c-0.06,0.08-0.13,0.16-0.19,0.23l-20.22-15.11
					l-1.37,1.19l12.1,22.17c-0.08,0.05-0.17,0.11-0.26,0.16c-1.69,1.03-3.45,1.93-5.3,2.68l-10.1-27.24l-4.58-4.23l2.64-1.26
					l1.61-2.43l3.55,5.13L249.989,225.9z"/>
				<path style="fill:#B6B6B6;" d="M177.559,208.32l28.52-2.95l5.82,2.24l-0.04-2.92l1.47-2.53l-6.17-0.91l-23.3-16.5
					c-1.07,1.64-2.03,3.36-2.84,5.15c-0.04,0.09-0.08,0.17-0.12,0.26v0.01l22.07,11.24l-0.46,1.76l-24.8-1.04L177.559,208.32z"/>
			</g>
			<g>
				<circle style="fill:#C7C7C7;" cx="216.448" cy="206.087" r="9.515"/>
				
					<ellipse transform="matrix(0.9872 -0.1597 0.1597 0.9872 -30.1424 37.2239)" style="fill:#50575B;" cx="216.448" cy="206.087" rx="8.707" ry="8.707"/>
				
					<ellipse transform="matrix(0.9881 -0.1541 0.1541 0.9881 -29.1768 35.8224)" style="fill:#1C1D1C;" cx="216.448" cy="206.087" rx="7.579" ry="7.579"/>
				<path style="fill:#1C1D1C;" d="M212.125,206.087c0,2.388,1.936,4.324,4.324,4.324s4.324-1.936,4.324-4.324
					c0-2.388-1.936-4.323-4.324-4.323S212.125,203.699,212.125,206.087z"/>
				<path style="fill:#B6B6B6;" d="M210.549,206.087c0,3.258,2.641,5.899,5.899,5.899c3.258,0,5.899-2.641,5.899-5.899
					c0-3.258-2.641-5.899-5.899-5.899C213.19,200.188,210.549,202.829,210.549,206.087z"/>
			</g>
			<path style="fill:#434343;" d="M216.448,164.662c-22.878,0-41.424,18.546-41.424,41.425c0,22.878,18.546,41.424,41.424,41.424
				s41.424-18.546,41.424-41.424C257.872,183.209,239.326,164.662,216.448,164.662z M216.448,240.363
				c-18.93,0-34.276-15.346-34.276-34.276s15.346-34.276,34.276-34.276s34.276,15.346,34.276,34.276
				S235.378,240.363,216.448,240.363z"/>
			<path style="fill:#B6B6B6;" d="M216.448,171.811c-18.93,0-34.276,15.346-34.276,34.276c0,18.93,15.346,34.276,34.276,34.276
				s34.276-15.346,34.276-34.276C250.724,187.157,235.378,171.811,216.448,171.811z M216.448,238.764
				c-18.047,0-32.677-14.63-32.677-32.677s14.63-32.677,32.677-32.677s32.677,14.63,32.677,32.677S234.495,238.764,216.448,238.764z
				"/>
			
				<linearGradient id="SVGID_00000111876176854951642400000006492022456039580035_" gradientUnits="userSpaceOnUse" x1="207.079" y1="239.1254" x2="222.3037" y2="190.5968">
				<stop  offset="0" style="stop-color:#FFFFFF;stop-opacity:0"/>
				<stop  offset="1" style="stop-color:#53575F"/>
			</linearGradient>
			<circle style="fill:url(#SVGID_00000111876176854951642400000006492022456039580035_);" cx="218.001" cy="204.313" r="45.707"/>
		</g>
		<g>
			<defs>
				<path id="SVGID_00000054954233689336925570000012431367079830762409_" d="M653.232,165.726l-1.322-32.46l8.533-4.189v-7.193
					c0,0-63.566-4.073-66.593-4.83c-3.027-0.757-86.915-33.695-114.996-40.668c-31.265-7.763-77.538-10.213-117.332-0.421
					c-22.105,5.439-125.015,57.355-125.015,57.355c-46.793,0.081-65.581-0.279-90.772,9.022c-4.825,1.781-28.62,19.247-32.612,22.49
					l-10.147,7.65c-3.351,2.526-6.057,5.809-7.898,9.579l0,0c-2.105,4.312-3.006,9.114-2.608,13.896l1.177,14.115l1.177,12.969
					l-10.449,2.663l-2.614,8.583l86.288,0.148c-0.379-4.579-0.586-8.597-0.586-11.195c0-32.348,17.873-58.571,50.22-58.571
					s56.185,26.223,56.185,58.571c0,2.725,0.399,6.962,0.816,11.648l234.7,0.913l0.95-0.048c-0.451-5.123-0.698-9.668-0.698-12.513
					c0-32.348,20.176-61.274,58.57-58.571c28.083,1.978,45.369,24.864,44.47,63.186l34.14-5.323l3.787-30.449l7.072-15.035
					L653.232,165.726z"/>
			</defs>
			<clipPath id="SVGID_00000007427149501224024790000004425553450164205758_">
				<use xlink:href="#SVGID_00000054954233689336925570000012431367079830762409_"  style="overflow:visible;"/>
			</clipPath>
			<path style="clip-path:url(#SVGID_00000007427149501224024790000004425553450164205758_);fill:#1C1D1C;" d="M677.538,143.216
				l-3.382-28.354c0,0-69.528-28.775-72.48-29.785c-18.654-6.381-86.993-11.495-102.885-16.035
				c-15.891-4.54-111.203-14.485-132.391-6.161c-21.188,8.324-148.402,62.44-148.402,62.44
				c-65.835-2.27-97.328,21.188-97.328,21.188l-24.215,19.675l-2.807,43.89l-30.034,24.215l104.436,0.148
				c-0.379-4.579-0.586-8.597-0.586-11.195c0-32.348,15.487-58.571,47.834-58.571s58.571,26.223,58.571,58.571
				c0,2.725,0.399,6.962,0.816,11.648l234.7,0.913l0.95-0.048c-0.451-5.123-0.698-9.668-0.698-12.513
				c0-32.348,26.223-58.571,58.57-58.571c31.108,0,33.862,54.504,35.768,85.131l52.537-30.647l8.324-5.297l17.405-6.054
				l-14.609-51.836L677.538,143.216z"/>
			<path style="clip-path:url(#SVGID_00000007427149501224024790000004425553450164205758_);fill:#FFFFFF;" d="M677.538,143.216
				l-3.382-28.354c0,0-69.528-28.775-72.48-29.785c-18.654-6.381-86.993-11.495-102.885-16.035
				c-15.891-4.54-111.203-14.485-132.391-6.161c-21.188,8.324-148.402,62.44-148.402,62.44
				c-65.835-2.27-97.328,21.188-97.328,21.188l-34.557,31.377l-1.264,34.712l-21.235,21.69l104.436,0.148
				c-0.379-4.579-0.586-8.597-0.586-11.195c0-32.348,15.487-58.571,47.834-58.571s58.571,26.223,58.571,58.571
				c0,2.725,0.399,6.962,0.816,11.648l234.7,0.913l0.95-0.048c-0.451-5.123-0.698-9.668-0.698-12.513
				c0-32.348,26.223-58.571,58.57-58.571c31.108,0,33.862,54.504,35.768,85.131l52.537-30.647l8.324-5.297l17.405-6.054
				l-14.609-51.836L677.538,143.216z"/>
			<g style="clip-path:url(#SVGID_00000007427149501224024790000004425553450164205758_);">
				<path style="fill:#1C1D1C;" d="M545.806,116.816c0,0,3.013-14.965,14.58-19.797c11.568-4.832,21.533-1.04,31.987-6.873
					c0,0-4.567,19.027-18.617,21.03C563.361,112.658,551.426,113.027,545.806,116.816z"/>
				<path style="fill:#1C1D1C;" d="M480.551,97.402c0,0,10.651-16.465,28.054-16.002c13.655,0.364,28.914,11.403,41.685,9.333
					c0,0-11.127,20.865-34.023,13.522C503.297,100.095,490.217,95.077,480.551,97.402z"/>
				<path style="fill:#1C1D1C;" d="M553.675,128.095c8.434-7.143,21.969-14.805,47.565-10.323
					c25.596,4.482,40.668,4.609,53.737-1.227c19.737-8.812,23.116-11.996,23.116-11.996s-6.548,34.963-47.831,42.256
					c-19.125,3.379-24.981-6.122-51.827-13.539C566.988,130.104,553.675,128.095,553.675,128.095z"/>
				<path style="fill:#1C1D1C;" d="M77.983,220.715c14.728-22.727,32.986-36.622,56.472-47.305
					c26.041-11.844,41.774-22.023,47.716-35.404c0,0-3.499,1.344-7.149,1.63c0,0,10.387-5.343,13.165-21.39
					c2.557-14.766-8.026-24.193-8.026-24.193s0.589,18.038-19.241,30.037c-19.831,11.999-53.062,9.579-73.502,40.262
					S77.983,220.715,77.983,220.715z"/>
				<path style="fill:#1C1D1C;" d="M337.496,199.615c0,0-8.558-23.038,3.001-46.939c10.876-22.49,32.675-19.937,40.77-27.756
					c8.095-7.82,9.658-21.439,9.658-21.439s17.054,18.235,6.402,37.778c-7.492,13.746-31.665,21.541-42.716,34.693
					C344.412,188.089,337.496,199.615,337.496,199.615z"/>
				<path style="fill:#1C1D1C;" d="M41.48,260.069c0,0,8.937-16.103,22.138-35.569c13.201-19.467,74.185-74.652,131.825-78.63
					c57.64-3.978,78.644,10.191,99.842,6.806c13.859-2.214,21.39-14.67,21.39-14.67s6.32,31.734-26.004,39.924
					c-20.975,5.315-39.365,4.196-50.775,7.739c-21.081,6.546-18.904,24.957-6.572,24.551c7.682-0.253,17.845-1.509,28.831-6.569
					c28.623-13.182,41.773-26.125,51.637-28.406c0,0-6.65,21.809,5.167,29.068c7.293,4.48,16.556,4.268,28.262-6.933
					c7.244-6.932,13.184-15.331,25.669-27.026c35.59-33.338,75.891-26.452,75.891-26.452s-20.683,14.704-26.066,23.389
					c-8.456,13.642-1.392,27.824,17.071,29.245c28.453,2.19,61.577-13.907,68.149-27.183c6.572-13.276,3.169-21.282-7.392-19.739
					c-13.047,1.907-25.36,22.496-25.36,22.496s-4.615-15.508,5.752-28.452c14.391-17.968,34.865-21.462,60.567-16.796
					c23.971,4.352,72.075,31.745,109.515,10.948c38.05-21.135,44.974-55.368,44.974-55.368v179.336L41.48,260.069z"/>
				
					<linearGradient id="SVGID_00000141445860224827746430000011872665902509170335_" gradientUnits="userSpaceOnUse" x1="371.2119" y1="248.6153" x2="386.8604" y2="142.4279">
					<stop  offset="0" style="stop-color:#ED0031"/>
					<stop  offset="0.2411" style="stop-color:#EF3E34"/>
					<stop  offset="0.5781" style="stop-color:#F28F38"/>
					<stop  offset="0.8175" style="stop-color:#F3C23A"/>
					<stop  offset="0.9347" style="stop-color:#F4D63B"/>
				</linearGradient>
				<path style="fill:url(#SVGID_00000141445860224827746430000011872665902509170335_);" d="M687.86,107.53
					c-0.668,45.296-1.347,90.593-2.015,135.889c-0.04,2.885-0.13,5.864-0.409,8.791H55.929c0,0,0,0,0.01-0.01
					c37.838-72.109,117.635-106.695,174.957-101.051c33.479,3.294,64.324,17.057,80.156,1.553c-1.337,2.864-2.853,5.339-4.529,7.479
					c-16.57,21.106-48.992,9.945-75.188,20.886c-8.09,3.388-17.318,13.868-16.77,22.627c0.648,10.217,14.575,12.871,24.7,11.392
					c25.458-3.734,47.445-16.039,69.143-31.879c0.02-0.011,0.03-0.021,0.03-0.021v0.01c-1.666,7.92-0.04,23.96,10.993,27.484
					c11.033,3.535,23.184-1.49,32.042-8.959c8.859-7.469,15.473-17.214,23.573-25.491c14.216-14.529,33.16-24.316,53.191-27.673
					c3.142-0.525,6.305-0.892,9.487-1.101c0,0-0.01,0-0.04,0.01c-14.675,7.217-31.594,18.001-30.935,34.345
					c0.379,9.473,7.242,17.823,15.712,22.061c8.479,4.238,18.296,4.941,27.753,4.332c22.555-1.437,36.022-6.598,53.58-20.833
					c10.774-8.738,24.241-27.327,15.941-38.447c-5.337-7.165-11.521-8.959-19.831-5.654c-8.29,3.294-14.665,10.05-20.57,16.742
					c-0.01,0.01-0.01,0.021-0.01,0.021c2.494-15.662,17.488-27.064,33.09-29.897c15.602-2.843,31.614,1.217,46.607,6.389
					c14.994,5.172,29.778,11.518,45.52,13.459c32.82,4.06,67.277-13.501,83.308-42.422C687.86,107.541,687.86,107.53,687.86,107.53z
					"/>
				
					<linearGradient id="SVGID_00000152266146729268310840000014760188265036420756_" gradientUnits="userSpaceOnUse" x1="364.8112" y1="309.3889" x2="389.6557" y2="223.6351">
					<stop  offset="0" style="stop-color:#ED0031"/>
					<stop  offset="0.2411" style="stop-color:#EF3E34"/>
					<stop  offset="0.5781" style="stop-color:#F28F38"/>
					<stop  offset="0.8175" style="stop-color:#F3C23A"/>
					<stop  offset="0.9347" style="stop-color:#F4D63B"/>
				</linearGradient>
				<path style="fill:url(#SVGID_00000152266146729268310840000014760188265036420756_);" d="M682.423,146.281V250.71
					l-600.427-1.731c0,0,0-0.01,0.01-0.031c6.554-30.568,23.354-50.395,56.453-65.595c33.12-15.211,60.573-17.267,60.573-17.267
					s-24.561,10.029-23.822,34.45c0.738,24.41,42.836,38.184,77.941,26.057c35.105-12.127,41.22-24.285,41.22-24.285
					s2.913,3.63,7.143,16.627c4.22,13.008,23.443,17.267,44.861,3.556c21.408-13.711,30.017-32.467,39.484-37.293
					c0,0-18.944,29.047,11.642,41.394c30.596,12.336,82.341,4.836,107.969-11.822c23.623-15.368,30.985-30.747,33.21-39.988v-0.01
					c1.287-5.381,0.838-8.686,0.838-8.686s16.869,6.84,10.624,26.949c-6.245,20.12,29.359,15.651,36.901,1.28
					c7.362-14.036-3.152-27.579-3.641-28.208c0.878,0.682,26.905,20.729,60.703,3.011
					C678.492,151.096,682.423,146.281,682.423,146.281z"/>
				
					<linearGradient id="SVGID_00000078018400993978214740000016155886604699171503_" gradientUnits="userSpaceOnUse" x1="296.8672" y1="130.9424" x2="183.8975" y2="182.1404">
					<stop  offset="0" style="stop-color:#DA001B"/>
					<stop  offset="0.1245" style="stop-color:#DB0D1D"/>
					<stop  offset="0.3545" style="stop-color:#DC2F23"/>
					<stop  offset="0.6645" style="stop-color:#DE662C"/>
					<stop  offset="1" style="stop-color:#E1A937"/>
				</linearGradient>
				<path style="fill:url(#SVGID_00000078018400993978214740000016155886604699171503_);" d="M311.051,152.701
					c-21.768,26.197-56.147-2.696-125.795,11.099c-91.321,18.087-128.49,87.194-129.318,88.4
					c37.838-72.109,117.635-106.695,174.957-101.051C264.374,154.442,295.22,168.205,311.051,152.701z"/>
				
					<linearGradient id="SVGID_00000036929832154290089530000009856872341482628515_" gradientUnits="userSpaceOnUse" x1="205.8075" y1="190.4475" x2="308.4078" y2="190.4475">
					<stop  offset="0" style="stop-color:#DA001B"/>
					<stop  offset="0.1245" style="stop-color:#DB0D1D"/>
					<stop  offset="0.3545" style="stop-color:#DC2F23"/>
					<stop  offset="0.6645" style="stop-color:#DE662C"/>
					<stop  offset="1" style="stop-color:#E1A937"/>
				</linearGradient>
				<path style="fill:url(#SVGID_00000036929832154290089530000009856872341482628515_);" d="M308.408,183.206
					c-0.898,0.818-21.498,19.291-47.076,30.6c-26.157,11.56-56.104,9.389-55.516-12.431c0.598-21.82,25.179-29.666,64.514-30.915
					c21.109-0.671,31.294-5.738,36.193-10.28c-16.57,21.106-48.992,9.945-75.188,20.886c-8.09,3.388-17.318,13.868-16.77,22.627
					c0.648,10.217,14.575,12.871,24.7,11.392C264.723,211.351,286.71,199.046,308.408,183.206z"/>
				
					<linearGradient id="SVGID_00000096022658225644027840000004883334505535186356_" gradientUnits="userSpaceOnUse" x1="305.1066" y1="185.0313" x2="437.7249" y2="185.0313">
					<stop  offset="0" style="stop-color:#DA001B"/>
					<stop  offset="0.1245" style="stop-color:#DB0D1D"/>
					<stop  offset="0.3545" style="stop-color:#DC2F23"/>
					<stop  offset="0.6645" style="stop-color:#DE662C"/>
					<stop  offset="1" style="stop-color:#E1A937"/>
				</linearGradient>
				<path style="fill:url(#SVGID_00000096022658225644027840000004883334505535186356_);" d="M437.725,147.456c0,0-0.01,0-0.03,0.01
					c-1.257,0.283-43.431,6.019-64.265,38.551c-20.187,31.521-43.222,43.822-59.323,32.399c-16.091-11.424-5.699-35.21-5.699-35.21
					l0.03-0.011c-1.666,7.92-0.04,23.96,10.993,27.484c11.033,3.535,23.184-1.49,32.042-8.959
					c8.859-7.469,15.473-17.214,23.573-25.491c14.216-14.529,33.16-24.316,53.191-27.673L437.725,147.456z"/>
				
					<linearGradient id="SVGID_00000067224557694162918300000003182680461508446867_" gradientUnits="userSpaceOnUse" x1="406.5499" y1="175.2447" x2="525.9084" y2="175.2447">
					<stop  offset="0" style="stop-color:#DA001B"/>
					<stop  offset="0.1245" style="stop-color:#DB0D1D"/>
					<stop  offset="0.3545" style="stop-color:#DC2F23"/>
					<stop  offset="0.6645" style="stop-color:#DE662C"/>
					<stop  offset="1" style="stop-color:#E1A937"/>
				</linearGradient>
				<path style="fill:url(#SVGID_00000067224557694162918300000003182680461508446867_);" d="M525.299,161.428
					c-6.111,19.922-27.912,43.448-72.885,48.317c-40.301,4.363-51.005-22.324-43.755-37.934c9.259-19.935,27.9-23.988,29.027-24.345
					c-14.675,7.217-37.705,31.294-18.507,48.223c7.11,6.27,16.426,7.307,25.883,6.698c22.555-1.437,46.422-8.061,62.15-24.295
					c10.976-11.329,13.378-19.678,11.768-25.417c-2.438-8.687-23.351-14.668-39.654,7.359c3.851-9.651,11.952-16.747,25.564-19.35
					C520.789,137.642,528.175,152.05,525.299,161.428z"/>
				
					<linearGradient id="SVGID_00000091698467086649686450000002259325635699666108_" gradientUnits="userSpaceOnUse" x1="479.3243" y1="133.7976" x2="687.8497" y2="133.7976">
					<stop  offset="0" style="stop-color:#DA001B"/>
					<stop  offset="0.1245" style="stop-color:#DB0D1D"/>
					<stop  offset="0.3545" style="stop-color:#DC2F23"/>
					<stop  offset="0.6645" style="stop-color:#DE662C"/>
					<stop  offset="1" style="stop-color:#E1A937"/>
				</linearGradient>
				<path style="fill:url(#SVGID_00000091698467086649686450000002259325635699666108_);" d="M687.85,107.562
					c-0.469,1.406-15.672,46.283-66.858,50.479c-39.155,3.21-52.543-14.382-91.668-22.826c-38.597-8.329-49.69,23.907-49.989,24.799
					c-0.01,0.01-0.01,0.021-0.01,0.021c2.494-15.662,17.488-27.064,33.09-29.897c15.602-2.843,31.614,1.217,46.607,6.389
					c14.994,5.172,29.778,11.518,45.52,13.459C637.362,154.044,671.818,136.483,687.85,107.562z"/>
				
					<linearGradient id="SVGID_00000152231325220452359920000003555636761273390779_" gradientUnits="userSpaceOnUse" x1="217.3931" y1="205.2561" x2="128.641" y2="207.8665">
					<stop  offset="0" style="stop-color:#DA001B"/>
					<stop  offset="0.1245" style="stop-color:#DB0D1D"/>
					<stop  offset="0.3545" style="stop-color:#DC2F23"/>
					<stop  offset="0.6645" style="stop-color:#DE662C"/>
					<stop  offset="1" style="stop-color:#E1A937"/>
				</linearGradient>
				<path style="fill:url(#SVGID_00000152231325220452359920000003555636761273390779_);" d="M294.372,202.309
					c0,0-2.673,23.341-50.937,32.74c-48.263,9.389-70.679-11.665-74.959-27.39c-4.28-15.714,8.16-28.764,8.16-28.764
					s-4.31-2.633-42.667,14.025c-37.759,16.396-51.545,54.832-51.964,56.028c6.554-30.568,23.354-50.395,56.453-65.595
					c33.12-15.211,60.573-17.267,60.573-17.267s-24.561,10.029-23.822,34.45c0.738,24.41,42.836,38.184,77.941,26.057
					C288.257,214.467,294.372,202.309,294.372,202.309z"/>
				
					<linearGradient id="SVGID_00000065066476929562193870000003218734692598689439_" gradientUnits="userSpaceOnUse" x1="294.3717" y1="211.065" x2="538.6806" y2="211.065">
					<stop  offset="0" style="stop-color:#DA001B"/>
					<stop  offset="0.1245" style="stop-color:#DB0D1D"/>
					<stop  offset="0.3545" style="stop-color:#DC2F23"/>
					<stop  offset="0.6645" style="stop-color:#DE662C"/>
					<stop  offset="1" style="stop-color:#E1A937"/>
				</linearGradient>
				<path style="fill:url(#SVGID_00000065066476929562193870000003218734692598689439_);" d="M538.681,174.783
					c-2.344,17.613-11.832,45.085-41.081,60.054c-34.048,17.435-76.813,14.345-98.917,4.675
					c-24.92-10.902-24.943-32.042-23.996-33.867c-0.918,1.563-8.789,14.424-27.044,25.69c-19.483,12.032-37.839,10.637-45.37,0
					c-3.868-5.457-3.388-12.808-4.399-18.82c-0.957-5.696-3.502-10.206-3.502-10.206s2.913,3.63,7.143,16.627
					c4.22,13.008,23.443,17.267,44.861,3.556c21.408-13.711,30.017-32.467,39.484-37.293c0,0-18.944,29.047,11.642,41.394
					c30.596,12.336,82.341,4.836,107.969-11.822C529.094,199.403,536.456,184.024,538.681,174.783z"/>
				
					<linearGradient id="SVGID_00000102541241239886559240000005548663287086494893_" gradientUnits="userSpaceOnUse" x1="595.0181" y1="218.2913" x2="604.4965" y2="185.5754">
					<stop  offset="0" style="stop-color:#DA001B"/>
					<stop  offset="0.1245" style="stop-color:#DB0D1D"/>
					<stop  offset="0.3545" style="stop-color:#DC2F23"/>
					<stop  offset="0.6645" style="stop-color:#DE662C"/>
					<stop  offset="1" style="stop-color:#E1A937"/>
				</linearGradient>
				<path style="fill:url(#SVGID_00000102541241239886559240000005548663287086494893_);" d="M682.423,146.281v14.09
					c-11.692,0.713-23.262,11.835-39.942,20.846c-27.094,14.655-45.402,3.258-46.369,1.811c0.638,1.29,4.335,24.489-24.307,31.706
					c-18.493,4.659-33.177-3.796-25.086-26.186c4.974-13.765-7.199-22.462-7.199-22.462s16.869,6.84,10.624,26.949
					c-6.245,20.12,29.359,15.651,36.901,1.28c7.362-14.036-3.152-27.579-3.641-28.208c0.878,0.682,26.905,20.729,60.703,3.011
					C678.492,151.096,682.423,146.281,682.423,146.281z"/>
				
					<linearGradient id="SVGID_00000009575046344878356200000001660991490854742670_" gradientUnits="userSpaceOnUse" x1="508.5752" y1="62.1412" x2="523.5475" y2="35.4992" gradientTransform="matrix(-0.5785 -0.8157 0.8157 -0.5785 775.2151 542.3777)">
					<stop  offset="0" style="stop-color:#DA001B"/>
					<stop  offset="0.1245" style="stop-color:#DB0D1D"/>
					<stop  offset="0.3545" style="stop-color:#DC2F23"/>
					<stop  offset="0.6645" style="stop-color:#DE662C"/>
					<stop  offset="1" style="stop-color:#E1A937"/>
				</linearGradient>
				<path style="fill:url(#SVGID_00000009575046344878356200000001660991490854742670_);" d="M541.973,94.621
					c-9.29,7.085-18.003,8.307-27.736,4.046c-11.256-4.927-22.054-6.432-22.054-6.432s12.621-11.575,25.787-5.392
					C535.853,95.242,541.973,94.621,541.973,94.621z"/>
				
					<linearGradient id="SVGID_00000162316940726718562590000006426155740215790223_" gradientUnits="userSpaceOnUse" x1="488.7321" y1="71.8214" x2="498.7311" y2="54.029" gradientTransform="matrix(-0.8786 -0.4776 0.4776 -0.8786 972.5983 394.6832)">
					<stop  offset="0" style="stop-color:#DA001B"/>
					<stop  offset="0.1245" style="stop-color:#DB0D1D"/>
					<stop  offset="0.3545" style="stop-color:#DC2F23"/>
					<stop  offset="0.6645" style="stop-color:#DE662C"/>
					<stop  offset="1" style="stop-color:#E1A937"/>
				</linearGradient>
				<path style="fill:url(#SVGID_00000162316940726718562590000006426155740215790223_);" d="M584.558,96.961
					c-3.487,6.98-8.352,10.275-15.441,10.582c-8.198,0.356-15.115,2.629-15.115,2.629s4.164-10.652,13.876-10.816
					C581.071,99.132,584.558,96.961,584.558,96.961z"/>
				
					<linearGradient id="SVGID_00000016043531010291602510000008467143144181138566_" gradientUnits="userSpaceOnUse" x1="84.0955" y1="175.83" x2="137.1335" y2="152.1779" gradientTransform="matrix(1.4156 -0.1735 0.7262 1.8625 -157.4187 -117.8973)">
					<stop  offset="0" style="stop-color:#DA001B"/>
					<stop  offset="0.1245" style="stop-color:#DB0D1D"/>
					<stop  offset="0.3545" style="stop-color:#DC2F23"/>
					<stop  offset="0.6645" style="stop-color:#DE662C"/>
					<stop  offset="1" style="stop-color:#E1A937"/>
				</linearGradient>
				<path style="fill:url(#SVGID_00000016043531010291602510000008467143144181138566_);" d="M161.444,131.979
					c-17.027,7.663-37.013,6.231-56.309,23.055c-19.296,16.824-21.758,48.617-21.758,48.617s15.715-24.991,48.877-37.359
					c36.51-13.616,39.263-22.389,39.263-22.389s-6.549,5.333-22.369,7.372c0,0,13.266-8.447,22.946-16.527
					c12.743-10.636,9.978-25.668,9.978-25.668S182.261,122.61,161.444,131.979z"/>
				
					<linearGradient id="SVGID_00000148650535740191271100000000815304814733357982_" gradientUnits="userSpaceOnUse" x1="248.5428" y1="187.2116" x2="289.1537" y2="169.1013" gradientTransform="matrix(1.238 -0.1454 0.9019 1.77 -135.9066 -117.8753)">
					<stop  offset="0" style="stop-color:#DA001B"/>
					<stop  offset="0.1245" style="stop-color:#DB0D1D"/>
					<stop  offset="0.3545" style="stop-color:#DC2F23"/>
					<stop  offset="0.6645" style="stop-color:#DE662C"/>
					<stop  offset="1" style="stop-color:#E1A937"/>
				</linearGradient>
				<path style="fill:url(#SVGID_00000148650535740191271100000000815304814733357982_);" d="M381.534,130.694
					c-9.784,5.888-22.255,4.531-32.572,17.657c-10.317,13.126-8.827,38.307-8.827,38.307s7.585-19.041,26.631-29.081
					c11.506-6.065,21.027-10.857,24.991-18.5c5.341-10.297,0.342-26.313,0.342-26.313S393.496,123.496,381.534,130.694z"/>
				
					<linearGradient id="SVGID_00000014633513101897895800000005660650724581458621_" gradientUnits="userSpaceOnUse" x1="613.0649" y1="147.012" x2="617.2032" y2="124.0638">
					<stop  offset="0" style="stop-color:#DA001B"/>
					<stop  offset="0.1245" style="stop-color:#DB0D1D"/>
					<stop  offset="0.3545" style="stop-color:#DC2F23"/>
					<stop  offset="0.6645" style="stop-color:#DE662C"/>
					<stop  offset="1" style="stop-color:#E1A937"/>
				</linearGradient>
				<path style="fill:url(#SVGID_00000014633513101897895800000005660650724581458621_);" d="M564.299,126.117
					c32.718-0.587,40.069,18.59,65.327,15.479c42.91-5.285,42.158-30.033,42.158-30.033s-28.926,20.403-56.269,13.134
					C580.367,115.354,564.299,126.117,564.299,126.117z"/>
			</g>
			<path style="clip-path:url(#SVGID_00000007427149501224024790000004425553450164205758_);fill:#1C1D1C;" d="M81.763,229.535
				l22.277-2.929c0,0,19.605-39.54,29.591-49.306c12.111-11.845,14.162-18.318,14.162-18.318l-9.015,4.833
				c0,0-11.789,5.346-16.995,10.224c-5.206,4.878-4.222,8.284-4.222,8.284l9.066-5.825c0,0-0.974,6.499-8.879,17.927
				c-7.905,11.428-38.67,8.927-38.67,8.927L81.763,229.535z"/>
			<polygon style="clip-path:url(#SVGID_00000007427149501224024790000004425553450164205758_);fill:#1C1D1C;" points="
				236.508,133.321 263.295,134.042 348.592,76.657 322.112,72.799 			"/>
			
				<linearGradient id="SVGID_00000114052051632956493660000011268522554554453126_" gradientUnits="userSpaceOnUse" x1="355.4166" y1="135.2436" x2="354.6451" y2="92.0406">
				<stop  offset="0" style="stop-color:#FFFFFF;stop-opacity:0"/>
				<stop  offset="1" style="stop-color:#FFFFFF"/>
			</linearGradient>
			
				<polygon style="clip-path:url(#SVGID_00000007427149501224024790000004425553450164205758_);fill:url(#SVGID_00000114052051632956493660000011268522554554453126_);" points="
				278.234,129.203 643.526,120.501 669.263,134.339 658.015,234.73 43.594,249.522 60.62,115.582 189.255,88.34 			"/>
			
				<linearGradient id="SVGID_00000112594732404225422840000001380587843411723676_" gradientUnits="userSpaceOnUse" x1="426.0353" y1="274.0793" x2="429.7654" y2="225.5881">
				<stop  offset="0" style="stop-color:#FFFFFF;stop-opacity:0"/>
				<stop  offset="1" style="stop-color:#53575F"/>
			</linearGradient>
			
				<path style="opacity:0.44;clip-path:url(#SVGID_00000007427149501224024790000004425553450164205758_);fill:url(#SVGID_00000112594732404225422840000001380587843411723676_);" d="
				M270.827,228.323v36.742l314.068,7.308l-10.001-43.361C574.894,229.011,324.594,228.596,270.827,228.323z"/>
			
				<linearGradient id="SVGID_00000081640444264651373910000003841700439346428033_" gradientUnits="userSpaceOnUse" x1="392.8681" y1="241.8566" x2="393.8115" y2="152.2357">
				<stop  offset="0" style="stop-color:#FFFFFF;stop-opacity:0"/>
				<stop  offset="1" style="stop-color:#53575F"/>
			</linearGradient>
			
				<polygon style="opacity:0.44;clip-path:url(#SVGID_00000007427149501224024790000004425553450164205758_);fill:url(#SVGID_00000081640444264651373910000003841700439346428033_);" points="
				205.521,159.216 676.138,131.47 698.133,232.775 265.983,263.423 87.376,272.503 			"/>
			<path style="clip-path:url(#SVGID_00000007427149501224024790000004425553450164205758_);fill:#0E0E0E;" d="M646.998,150.489
				c0,6.913-1.935,12.517-4.322,12.517c-2.387,0-4.322-5.604-4.322-12.517s1.935-12.517,4.322-12.517
				C645.063,137.972,646.998,143.576,646.998,150.489z"/>
			
				<linearGradient id="SVGID_00000093158171949268563750000004153463801899876252_" gradientUnits="userSpaceOnUse" x1="647.6853" y1="159.3035" x2="637.6927" y2="139.6122">
				<stop  offset="0" style="stop-color:#FFFFFF;stop-opacity:0"/>
				<stop  offset="1" style="stop-color:#FFFFFF"/>
			</linearGradient>
			
				<ellipse style="clip-path:url(#SVGID_00000007427149501224024790000004425553450164205758_);fill:url(#SVGID_00000093158171949268563750000004153463801899876252_);" cx="643.794" cy="151.635" rx="3.204" ry="9.801"/>
			
				<linearGradient id="SVGID_00000113346034334705631080000015629824595414860451_" gradientUnits="userSpaceOnUse" x1="567.7339" y1="199.3" x2="567.7339" y2="154.2793">
				<stop  offset="0" style="stop-color:#FFFFFF;stop-opacity:0"/>
				<stop  offset="1" style="stop-color:#FFFFFF"/>
			</linearGradient>
			
				<path style="opacity:0.3;clip-path:url(#SVGID_00000007427149501224024790000004425553450164205758_);fill:url(#SVGID_00000113346034334705631080000015629824595414860451_);" d="
				M631.143,228.307c-3.876-0.025-10.141-0.049-10.14-0.072c1.404-49.579-27.963-70.087-59.527-70.087
				c-31.563,0-57.151,25.587-57.151,57.151c0,19.577,9.848,36.848,24.855,47.147l101.962,2.544V228.307z"/>
			
				<linearGradient id="SVGID_00000038407173949020042950000005806098206134919331_" gradientUnits="userSpaceOnUse" x1="370.407" y1="196.7614" x2="368.7254" y2="144.2956">
				<stop  offset="0" style="stop-color:#FFFFFF;stop-opacity:0"/>
				<stop  offset="1" style="stop-color:#FFFFFF"/>
			</linearGradient>
			
				<path style="opacity:0.3;clip-path:url(#SVGID_00000007427149501224024790000004425553450164205758_);fill:url(#SVGID_00000038407173949020042950000005806098206134919331_);" d="
				M583.296,272.372l-10.001-43.361c0,0-291.898-0.516-291.912-0.776c-2.559-47.986-32.103-70.087-63.667-70.087
				s-57.151,25.587-57.151,57.151c0,19.577,9.848,36.848,24.855,47.147L583.296,272.372z"/>
			<polygon style="clip-path:url(#SVGID_00000007427149501224024790000004425553450164205758_);fill:#0E0E0E;" points="
				657.678,177.05 632.403,196.572 628.038,244.058 661.719,237.902 			"/>
			
				<linearGradient id="SVGID_00000092443274637409954680000002701045707980143008_" gradientUnits="userSpaceOnUse" x1="649.4076" y1="208.3105" x2="635.1891" y2="197.6467">
				<stop  offset="0" style="stop-color:#FFFFFF;stop-opacity:0"/>
				<stop  offset="1" style="stop-color:#FFFFFF"/>
			</linearGradient>
			
				<path style="clip-path:url(#SVGID_00000007427149501224024790000004425553450164205758_);fill:url(#SVGID_00000092443274637409954680000002701045707980143008_);" d="
				M655.387,189.756c-0.226,0.213-17.718,13.404-17.718,13.404l-1.682,18.123l16.389-3.608L655.387,189.756z"/>
			<g style="clip-path:url(#SVGID_00000007427149501224024790000004425553450164205758_);">
				<path style="fill:#1C1D1C;" d="M488.318,90.929c-23.473-9.26-67.095-20.701-116.814-11.413
					c-7.043,1.316-18.138,5.831-29.071,12.276c-26.719,15.751-63.657,45.974-63.657,45.974l254.172-18.463
					C527.704,113.352,500.547,95.753,488.318,90.929z"/>
				
					<linearGradient id="SVGID_00000167385548372688026270000007552063710097808811_" gradientUnits="userSpaceOnUse" x1="445.1811" y1="102.0456" x2="458.3699" y2="102.0456">
					<stop  offset="0" style="stop-color:#FFFFFF;stop-opacity:0.614"/>
					<stop  offset="1" style="stop-color:#FFFFFF;stop-opacity:0.9128"/>
				</linearGradient>
				
					<line style="opacity:0.34;fill:none;stroke:url(#SVGID_00000167385548372688026270000007552063710097808811_);stroke-width:0.75;stroke-miterlimit:10;" x1="445.543" y1="79.171" x2="458.008" y2="124.92"/>
				
					<linearGradient id="SVGID_00000003821352968910689280000012278952732735520431_" gradientUnits="userSpaceOnUse" x1="410.1434" y1="126.7088" x2="400.1988" y2="-3.6758">
					<stop  offset="0" style="stop-color:#FFFFFF;stop-opacity:0"/>
					<stop  offset="1" style="stop-color:#FFFFFF"/>
				</linearGradient>
				<path style="fill:url(#SVGID_00000003821352968910689280000012278952732735520431_);" d="M529.314,126.164
					c0,0-25.488-28.835-63.223-35.866c-49.301-9.187-70.542-7.616-89.987-4.647c-15.063,2.299-24.809,6.651-34.253,13.134
					l-50.04,39.447l150.937-10.334L529.314,126.164z"/>
			</g>
			
				<line style="opacity:0.35;clip-path:url(#SVGID_00000007427149501224024790000004425553450164205758_);fill:none;stroke:#1E1C21;stroke-width:1.1929;stroke-miterlimit:10;" x1="592.252" y1="176.327" x2="660.509" y2="165.728"/>
			
				<linearGradient id="SVGID_00000043415943884252242540000013010767136760375197_" gradientUnits="userSpaceOnUse" x1="165.1925" y1="229.9685" x2="127.0189" y2="202.7016">
				<stop  offset="0" style="stop-color:#FFFFFF;stop-opacity:0"/>
				<stop  offset="1" style="stop-color:#53575F"/>
			</linearGradient>
			
				<path style="opacity:0.44;clip-path:url(#SVGID_00000007427149501224024790000004425553450164205758_);fill:url(#SVGID_00000043415943884252242540000013010767136760375197_);" d="
				M77.559,229.535l26.48-2.929l26.716-32.437c14.014-17.015,33.75-28.338,55.513-31.847l19.252-3.105l29.967,98.185H64.218
				L77.559,229.535z"/>
		</g>
		<g>
			<path style="opacity:0.16;fill:none;stroke:#1E1C21;stroke-linecap:round;stroke-linejoin:round;stroke-miterlimit:10;" d="
				M300.214,135.537c0,0-11.395,7.796-14.338,12.006c-5.059,7.235-5.406,7.78-4.748,24.793c0.657,17.013,7.887,55.899,7.887,55.899
				h127.458l48.43-42.566l-6.895-60.749L300.214,135.537z"/>
		</g>
		<polygon style="fill:#1E1C21;" points="456.687,147.954 428.377,149.613 426.038,145.503 428.186,142.343 456.496,140.683 
			458.008,143.264 		"/>
		<g>
			<path style="fill:#28292A;" d="M307.221,133.687l-5.971,10.236c0,0,0.047,4.207,10.686,0.255
				c2.893-1.074,1.54-10.775,1.54-10.775L307.221,133.687z"/>
			
				<radialGradient id="SVGID_00000178899998427511474010000002098605379503415202_" cx="315.6866" cy="149.0991" r="19.9827" gradientUnits="userSpaceOnUse">
				<stop  offset="0.5802" style="stop-color:#FFFFFF;stop-opacity:0"/>
				<stop  offset="1" style="stop-color:#FFFFFF"/>
			</radialGradient>
			<path style="fill:url(#SVGID_00000178899998427511474010000002098605379503415202_);" d="M308.351,134.492l-4.944,9.559
				c0,0,0.039,3.929,8.849,0.238c2.396-1.004,1.275-10.064,1.275-10.064L308.351,134.492z"/>
			<path style="fill:#FFFFFF;" d="M305.102,130.552c-1.129,1.602-0.845,3.776,0.653,5.04c1.923,1.621,4.254,3.199,6.584,3.782
				c3.412,0.853,15.752,0.675,15.752,0.675s1.594-6.646,0.409-16.052c-0.503-3.992-2.206-6.177-4.196-5.68
				C316.413,120.289,307.399,127.293,305.102,130.552z"/>
			
				<linearGradient id="SVGID_00000119834169622072503140000004287691562494570417_" gradientUnits="userSpaceOnUse" x1="296.3115" y1="133.1418" x2="335.0973" y2="127.9932">
				<stop  offset="0" style="stop-color:#FFFFFF;stop-opacity:0"/>
				<stop  offset="1" style="stop-color:#53575F"/>
			</linearGradient>
			<path style="opacity:0.44;fill:url(#SVGID_00000119834169622072503140000004287691562494570417_);" d="M305.102,130.552
				c-1.129,1.602-0.845,3.776,0.653,5.04c1.923,1.621,4.254,3.199,6.584,3.782c3.412,0.853,15.752,0.675,15.752,0.675
				s1.594-6.646,0.409-16.052c-0.503-3.992-2.206-6.177-4.196-5.68C316.413,120.289,307.399,127.293,305.102,130.552z"/>
			
				<radialGradient id="SVGID_00000175283633348168146470000010171285839067460490_" cx="308.3391" cy="146.9821" r="35.5556" gradientUnits="userSpaceOnUse">
				<stop  offset="0.5802" style="stop-color:#FFFFFF;stop-opacity:0"/>
				<stop  offset="1" style="stop-color:#FFFFFF"/>
			</radialGradient>
			<path style="fill:url(#SVGID_00000175283633348168146470000010171285839067460490_);" d="M307.37,130.435
				c-0.904,1.331-0.676,3.137,0.523,4.186c1.539,1.347,3.404,2.658,5.269,3.141c2.73,0.709,12.627-0.354,12.627-0.354
				s1.024-9.566-0.682-12.4c-1.706-2.834-4.21-3.602-5.802-3.189C312.99,123.459,309.209,127.728,307.37,130.435z"/>
		</g>
		<g>
			<g>
				<defs>
					<path id="SVGID_00000127041526888402400200000016666831235085661621_" d="M100.333,192.187l1.584,0.026
						c6.347,0.103,12.398-2.684,16.459-7.58l2.589-3.122c0.933-1.126,2.041-2.093,3.28-2.866l7.192-4.487
						c0,0,13.953-10.23,16.234-14.811c2.232-4.483-27.228,4.236-33.846,8.358c-4.046,2.52-11.47,10.332-16.975,16.428
						C94.078,187.204,96.204,192.12,100.333,192.187z"/>
				</defs>
				<clipPath id="SVGID_00000021088615129763765410000012005652170975217083_">
					<use xlink:href="#SVGID_00000127041526888402400200000016666831235085661621_"  style="overflow:visible;"/>
				</clipPath>
				
					<linearGradient id="SVGID_00000132085726184283913860000001327907108894359945_" gradientUnits="userSpaceOnUse" x1="134.0512" y1="184.6522" x2="132.769" y2="160.6113" gradientTransform="matrix(0.7511 -0.2361 0.3224 1.0254 -34.8093 36.4135)">
					<stop  offset="0" style="stop-color:#FFFFFF;stop-opacity:0"/>
					<stop  offset="1" style="stop-color:#53575F"/>
				</linearGradient>
				
					<path style="clip-path:url(#SVGID_00000021088615129763765410000012005652170975217083_);fill:url(#SVGID_00000132085726184283913860000001327907108894359945_);" d="
					M81.331,197.859l19.289,3.31l28.362-13.306l13.686-12.706c0,0,7.439-19.548,13.038-23.311c0,0-35.788,5.257-44.286,11.087
					C102.484,169.062,81.331,197.859,81.331,197.859z"/>
				
					<linearGradient id="SVGID_00000072960193417132643040000017456816627698596996_" gradientUnits="userSpaceOnUse" x1="95.1444" y1="173.2934" x2="202.7699" y2="173.2934" gradientTransform="matrix(0.5757 -0.1744 0.2095 0.6916 4.8205 81.9989)">
					<stop  offset="0" style="stop-color:#FFFFFF;stop-opacity:0"/>
					<stop  offset="1" style="stop-color:#53575F"/>
				</linearGradient>
				
					<path style="clip-path:url(#SVGID_00000021088615129763765410000012005652170975217083_);fill:url(#SVGID_00000072960193417132643040000017456816627698596996_);" d="
					M97.483,190.48l14.472,1.896l18.52-17.283l8.525-2.472c0,0,11.876-12.148,16.233-14.811c0,0-27.228,4.236-33.846,8.358
					C114.429,170.501,97.483,190.48,97.483,190.48z"/>
			</g>
			
				<linearGradient id="SVGID_00000039095189683424252730000003478564094360459189_" gradientUnits="userSpaceOnUse" x1="146.4413" y1="162.7969" x2="118.659" y2="187.1911" gradientTransform="matrix(0.7484 -0.0906 0.0758 0.7197 6.5676 62.3011)">
				<stop  offset="0" style="stop-color:#FFFFFF;stop-opacity:0"/>
				<stop  offset="1" style="stop-color:#53575F"/>
			</linearGradient>
			<path style="fill:url(#SVGID_00000039095189683424252730000003478564094360459189_);" d="M97.838,188.281
				c1.741,2.186,13.569-0.109,18.659-5.214l6.418-6.437l8.524-2.472c0,0,12.414-12.79,15.528-14.698
				c0,0-30.495,10.078-34.852,12.848C107.613,175.169,96.372,186.442,97.838,188.281z"/>
			
				<linearGradient id="SVGID_00000119094922514859702170000004588648135429957504_" gradientUnits="userSpaceOnUse" x1="101.7676" y1="170.2896" x2="172.4102" y2="170.2896" gradientTransform="matrix(0.5757 -0.1744 0.2095 0.6916 4.8205 81.9989)">
				<stop  offset="0" style="stop-color:#FFFFFF;stop-opacity:0"/>
				<stop  offset="1" style="stop-color:#FFFFFF"/>
			</linearGradient>
			<path style="fill:url(#SVGID_00000119094922514859702170000004588648135429957504_);" d="M102.113,187.275
				c6.046-0.934,15.896-6.065,20.224-10.406c0,0,12.799-8.034,15.797-12.381c0.745-1.081-18.693,4.608-22.933,7.327
				C110.822,174.623,95.598,188.281,102.113,187.275z"/>
		</g>
		
			<linearGradient id="SVGID_00000162339392441644540630000010691662827424502449_" gradientUnits="userSpaceOnUse" x1="417.3083" y1="189.2309" x2="417.3083" y2="228.8198">
			<stop  offset="0" style="stop-color:#FFFFFF;stop-opacity:0"/>
			<stop  offset="1" style="stop-color:#53575F"/>
		</linearGradient>
		<path style="opacity:0.44;fill:url(#SVGID_00000162339392441644540630000010691662827424502449_);" d="M269.478,161.855
			l10.662,42.729c2.842,11.388,13.072,19.379,24.809,19.379h183.754c0,0,3.237-74.268,76.436-83.28L269.478,161.855z"/>
		
			<linearGradient id="SVGID_00000067958628459802889650000013747216974982642868_" gradientUnits="userSpaceOnUse" x1="327.5602" y1="227.2626" x2="304.1838" y2="242.8469">
			<stop  offset="0" style="stop-color:#FFFFFF;stop-opacity:0"/>
			<stop  offset="1" style="stop-color:#53575F"/>
		</linearGradient>
		<path style="opacity:0.44;fill:url(#SVGID_00000067958628459802889650000013747216974982642868_);" d="M269.478,161.855
			l10.662,42.729c2.842,11.388,13.072,19.379,24.809,19.379h183.754c0,0,3.237-74.268,76.436-83.28L269.478,161.855z"/>
		
			<linearGradient id="SVGID_00000051380317157207060980000001526201143310536369_" gradientUnits="userSpaceOnUse" x1="458.8437" y1="203.7444" x2="484.4968" y2="223.2896">
			<stop  offset="0" style="stop-color:#FFFFFF;stop-opacity:0"/>
			<stop  offset="1" style="stop-color:#53575F"/>
		</linearGradient>
		<path style="opacity:0.44;fill:url(#SVGID_00000051380317157207060980000001526201143310536369_);" d="M269.478,161.855
			l10.662,42.729c2.842,11.388,13.072,19.379,24.809,19.379h183.754c0,0,3.237-74.268,76.436-83.28L269.478,161.855z"/>
	</g>
</g>
</svg>
