<svg xmlns="http://www.w3.org/2000/svg" xmlns:xlink="http://www.w3.org/1999/xlink" viewBox="0 0 4000 4000"><defs><style>.cls-1{mask:url(#mask);filter:url(#luminosity-noclip-4);}.cls-2,.cls-4,.cls-6{mix-blend-mode:multiply;}.cls-2,.cls-27{fill:url(#linear-gradient);}.cls-3{mask:url(#mask-2);filter:url(#luminosity-noclip-5);}.cls-4{fill:url(#linear-gradient-2);}.cls-5{mask:url(#mask-3);filter:url(#luminosity-noclip-6);}.cls-31,.cls-6{fill:url(#linear-gradient-3);}.cls-7{isolation:isolate;}.cls-8{fill:#6a79ea;}.cls-10,.cls-9{fill:#0c064f;}.cls-9{opacity:0.22;mix-blend-mode:color-burn;}.cls-11{fill:#3b7be2;}.cls-12{fill:#b6c1ce;}.cls-13{opacity:0.6;}.cls-14{fill:#fff;}.cls-15{fill:#8090a0;}.cls-16{opacity:0.56;}.cls-17{fill:#fbfbfd;}.cls-18{fill:#64798e;}.cls-19{fill:#424266;}.cls-20{fill:#5b5b82;}.cls-21{opacity:0.61;}.cls-22{fill:#8696ad;}.cls-23{fill:#6a809b;}.cls-24{fill:#4d9df4;}.cls-25{fill:#262568;}.cls-26{mask:url(#mask-4);}.cls-27,.cls-29,.cls-31{opacity:0.28;}.cls-28{mask:url(#mask-5);}.cls-29{fill:url(#linear-gradient-5);}.cls-30{mask:url(#mask-6);}.cls-32{fill:#f25422;}.cls-33{fill:#ffc82c;}.cls-34{fill:#c3d4e5;}.cls-35{fill:#9fb6c9;}.cls-36{filter:url(#luminosity-noclip-3);}.cls-37{filter:url(#luminosity-noclip-2);}.cls-38{filter:url(#luminosity-noclip);}</style><filter id="luminosity-noclip" x="2208.7808" y="-10192" width="435.25" height="32766" filterUnits="userSpaceOnUse" color-interpolation-filters="sRGB"><feFlood flood-color="#fff" result="bg"/><feBlend in="SourceGraphic" in2="bg"/></filter><mask id="mask" x="2208.7808" y="-10192" width="435.25" height="32766" maskUnits="userSpaceOnUse"><g class="cls-38"/></mask><linearGradient id="linear-gradient" x1="2351.6494" y1="1772.94058" x2="2472.23546" y2="2375.87266" gradientUnits="userSpaceOnUse"><stop offset="0" stop-color="#fff"/><stop offset="1"/></linearGradient><filter id="luminosity-noclip-2" x="1334.0308" y="-10192" width="519.0499" height="32766" filterUnits="userSpaceOnUse" color-interpolation-filters="sRGB"><feFlood flood-color="#fff" result="bg"/><feBlend in="SourceGraphic" in2="bg"/></filter><mask id="mask-2" x="1334.0308" y="-10192" width="519.0499" height="32766" maskUnits="userSpaceOnUse"><g class="cls-37"/></mask><linearGradient id="linear-gradient-2" x1="1542.76501" y1="1894.5942" x2="1662.54202" y2="2493.48104" xlink:href="#linear-gradient"/><filter id="luminosity-noclip-3" x="1646.4307" y="-10192" width="385.8999" height="32766" filterUnits="userSpaceOnUse" color-interpolation-filters="sRGB"><feFlood flood-color="#fff" result="bg"/><feBlend in="SourceGraphic" in2="bg"/></filter><mask id="mask-3" x="1646.4307" y="-10192" width="385.8999" height="32766" maskUnits="userSpaceOnUse"><g class="cls-36"/></mask><linearGradient id="linear-gradient-3" x1="1812.33384" y1="1835.46414" x2="1932.1365" y2="2434.47921" xlink:href="#linear-gradient"/><filter id="luminosity-noclip-4" x="2208.7808" y="1777.4987" width="435.25" height="592.7499" filterUnits="userSpaceOnUse" color-interpolation-filters="sRGB"><feFlood flood-color="#fff" result="bg"/><feBlend in="SourceGraphic" in2="bg"/></filter><mask id="mask-4" x="2208.7808" y="1777.4987" width="435.25" height="592.7499" maskUnits="userSpaceOnUse"><g class="cls-1"><path class="cls-2" d="M2644.0308,2370.2486h-177.15l-258.1-447.0498,26.25-101.0001a59.75214,59.75214,0,0,1,57.8-44.7h8.9499Z"/></g></mask><filter id="luminosity-noclip-5" x="1334.0308" y="1756.1486" width="519.0499" height="606.85" filterUnits="userSpaceOnUse" color-interpolation-filters="sRGB"><feFlood flood-color="#fff" result="bg"/><feBlend in="SourceGraphic" in2="bg"/></filter><mask id="mask-5" x="1334.0308" y="1756.1486" width="519.0499" height="606.85" maskUnits="userSpaceOnUse"><g class="cls-3"><path class="cls-4" d="M1853.0807,2362.9986l-275.1001-6.3999-243.9498-422.5,53.5-140.2002c20.1999-16.3497,61.4499-28.7997,115.1499-37.7499Z"/></g></mask><linearGradient id="linear-gradient-5" x1="1542.76501" y1="1894.5942" x2="1662.54202" y2="2493.48104" gradientUnits="userSpaceOnUse"><stop offset="0" stop-color="#fff"/><stop offset="1" stop-color="#fff"/></linearGradient><filter id="luminosity-noclip-6" x="1646.4307" y="1737.5488" width="385.8999" height="585.8499" filterUnits="userSpaceOnUse" color-interpolation-filters="sRGB"><feFlood flood-color="#fff" result="bg"/><feBlend in="SourceGraphic" in2="bg"/></filter><mask id="mask-6" x="1646.4307" y="1737.5488" width="385.8999" height="585.8499" maskUnits="userSpaceOnUse"><g class="cls-5"><path class="cls-6" d="M2032.3306,2200.1485l-29.9499,87.8501a111.275,111.275,0,0,1-19.8499,35.4001l-336.1001-582.15c38.2501-2.15,78.3999-3.4,118.8-3.6999Z"/></g></mask></defs><g class="cls-7"><g id="Layer_1" data-name="Layer 1"><rect class="cls-8" width="4000" height="4000"/><ellipse class="cls-9" cx="1822.2602" cy="3273.5594" rx="1507.8638" ry="92.267"/><ellipse class="cls-10" cx="334.4628" cy="2820.24795" rx="33.0992" ry="20.45453" transform="translate(-2463.55183 2333.64957) rotate(-73.37114)"/><polyline class="cls-11" points="2189.868 3049.418 2004.413 3049.418 2049.331 2613.55 2147.719 2613.55 2235.488 2696.729"/><path class="cls-10" d="M2072.8431,2610.5752s69.1023,59.4118,35.7025,236.0331-89.2562,202.8099-89.2562,202.8099-291.5702-177.3054-292.562-177.1651,46.1157-236.8845,49.5868-245.8101,138.843-49.5769,138.843-49.5769Z"/><path class="cls-10" d="M2141.7698,3064.4175h-55.7861a15,15,0,0,1,0-30h55.7861a15,15,0,0,1,0,30Z"/><path class="cls-12" d="M1698.8309,1517.3486h-.0501c-13.75,2.9-27.2,6-40.1501,9.4-4.3,1.1502-8.5498,2.3001-12.75,3.5a214.85262,214.85262,0,0,0-50.4001,21.55s-.05-.05-.05,0c-3.4497,2.0502-6.85,4.2002-10.1999,6.4002a213.88554,213.88554,0,0,0-32.6498,26.6998c-4.2502,4.3002-8.4003,8.7-12.3001,13.3002-2.6001,3.0499-5.1502,6.1999-7.6001,9.4497-2.3999,3.2001-4.7501,6.5003-7.0499,9.8502a217.78076,217.78076,0,0,0-20.2499,37.6498c-50.2503,120.4502-75.6501,291.6501-146.4502,431.9001-13.9499-7.3499-27.8998-14.7498-41.6498-21.9998-32.9001-17.3502-64.6002-34.05-91.7502-48.35,78.6999-149.8501,107.3502-335.8502,172.0999-478.8a216.7839,216.7839,0,0,1,102.0001-105.2002q63.14985-30.975,138.2001-43.2999c10.0501-1.8499,19.5499.1999,28.2001,5.0501a35.682,35.682,0,0,1,4.8498,3.0499,44.58847,44.58847,0,0,1,4.65,3.5999c.7501.65,1.4999,1.3501,2.2501,2.0001,1.4498,1.4001,2.9,2.85,4.2999,4.35.7001.7501,1.4001,1.5499,2.0502,2.3501.6997.7999,1.3497,1.5997,1.9998,2.45.65.7998,1.3,1.6497,1.95,2.5,1.25,1.7498,2.45,3.5,3.6499,5.35,1.25,1.9,2.45,3.8998,3.5502,5.9.4998.8499.95,1.7498,1.3998,2.5998,1.5503,2.9501,3.0002,6,4.3002,9.1q.5997,1.425,1.2,2.85.075.2253.1498.4502c1.25,3.0499,2.3001,6.1499,3.2501,9.2999a.155.155,0,0,0,.0501.1001c.65,2.0999,1.1999,4.1998,1.6998,6.3.2503,1.0498.5002,2.1.7501,3.1998.25,1.0501.4502,2.15.6501,3.2001a55.9013,55.9013,0,0,1,1,6.3501,22.15925,22.15925,0,0,1,.3,2.55c.1499,1.3498.3,2.6499.3501,4a27.2877,27.2877,0,0,1,.1498,2.85C1711.1307,1494.5486,1707.5809,1508.5986,1698.8309,1517.3486Z"/><g class="cls-13"><path class="cls-14" d="M1490.8564,1437.2489c6.3175-2.6763,27.9626,26.9182-9.9713,99.4389s-95.5785,64.6767-92.9752,30.8507S1424.3614,1465.4185,1490.8564,1437.2489Z"/></g><path class="cls-15" d="M1698.7808,1517.3486c-13.75,2.9-27.2,6-40.1501,9.4-4.35,1.1001-8.5999,2.25-12.8,3.45a213.43769,213.43769,0,0,0-50.3501,21.6s-.05-.05-.05,0c-3.4497,2.0002-6.85,4.1501-10.1999,6.4002a213.88554,213.88554,0,0,0-32.6498,26.6998c-4.2502,4.2001-8.4003,8.6502-12.3001,13.3002-2.6001,3.0499-5.1502,6.1999-7.6001,9.4497-2.45,3.2001-4.7998,6.5003-7.0499,9.8502a217.78076,217.78076,0,0,0-20.2499,37.6498c-50.2503,120.4502-75.6501,291.6501-146.4502,431.9001-13.9499-7.3499-27.8998-14.7498-41.6498-21.9998,77.5998-143.1501,102.9498-323.2502,155.1999-448.5502a216.30162,216.30162,0,0,1,140.4498-124.9499c16.8002-4.8001,34.6503-8.9999,52.9501-12.9001,17.0002-16.9998,14.4001-54.1498.1502-84.1998a55.83347,55.83347,0,0,1,4.8498,3.0499c1.6001,1.0999,3.1501,2.3499,4.65,3.5999.7501.65,1.4999,1.3501,2.2501,2.0001,1.4498,1.4001,2.9,2.85,4.2999,4.35.7001.7501,1.4001,1.5499,2.0502,2.3501.6997.7999,1.3497,1.5997,1.9998,2.45.65.7998,1.3,1.6497,1.95,2.5,1.25,1.7498,2.45,3.5,3.6499,5.35,1.25,1.9,2.45,3.8998,3.5502,5.9.4998.8499.95,1.7498,1.3998,2.5998,1.5503,2.9501,3.0002,6,4.3002,9.1q.5997,1.425,1.2,2.85.075.2253.1498.4502c1.2003,3.0499,2.3001,6.1499,3.2501,9.2999a.155.155,0,0,0,.0501.1001c.6,2.0499,1.1999,4.1998,1.6998,6.3.2503,1.0498.5002,2.1.7501,3.1998.25,1.0501.4502,2.15.6501,3.2001.4001,2.1499.7501,4.2499,1,6.3501a22.15925,22.15925,0,0,1,.3,2.55c.1499,1.3498.3,2.6499.3501,4q.07455,1.425.1498,2.85C1711.0806,1494.5486,1707.5308,1508.5986,1698.7808,1517.3486Z"/><path class="cls-10" d="M1355.9813,2107.8232a15.00346,15.00346,0,0,1-13.313-21.892c42.1313-81.482,67.9858-173.5059,92.9882-262.5025,17.7247-63.081,34.4629-122.6672,55.8838-174.0307a230.12369,230.12369,0,0,1,150.2222-133.6036c14.248-4.0454,30.2686-7.9895,48.8379-12.0227,8.8208-13.5229,5.9473-43.2971-7.1997-68.2666-4.4238-8.3996-20.586-35.4907-42.832-31.3427-48.4205,7.871-93.501,21.9787-134.3238,41.9921a202.22886,202.22886,0,0,0-94.9463,97.9371c-28.457,62.8247-49.6118,133.3471-72.0068,208.0114-30.7666,102.5733-62.5806,208.6377-115.9888,299.5606a15.0009,15.0009,0,1,1-25.8691-15.1953c51.5796-87.8077,82.8662-192.1143,113.1225-292.9834,22.6929-75.6556,44.126-147.1143,73.4131-211.7713a232.31364,232.31364,0,0,1,109.0699-112.4963c43.4765-21.3135,91.3818-36.322,142.3828-44.6082,28.2861-5.2551,56.2719,12.2547,74.5239,46.919,18.1519,34.4763,23.8013,82.1045-.5225,106.427a14.9911,14.9911,0,0,1-7.4829,4.0649c-20.0952,4.2761-37.0996,8.4082-51.9848,12.6343a200.27063,200.27063,0,0,0-130.7251,116.2915c-20.7203,49.6826-37.2217,108.4155-54.6924,170.5981-25.4102,90.4444-51.6846,183.9649-95.2197,268.1666A14.9991,14.9991,0,0,1,1355.9813,2107.8232Z"/><path class="cls-12" d="M1487.3036,1880.5054q-33.3,151.20015-85.8499,282.9a69.08345,69.08345,0,0,1-84.35,40.3501l-141.2-43.0499a69.27716,69.27716,0,0,1-48.9502-63.7,67.3762,67.3762,0,0,1,1.7002-18.0502c22.3498-97.5501,50.4001-191.6999,85.35-281.6999a69.07075,69.07075,0,0,1,84.5999-40.8502l141.25,43.1003a69.22739,69.22739,0,0,1,47.45,80.9998Z"/><g class="cls-13"><path class="cls-14" d="M1234.0602,1769.4476c64.3701,136.3973,15.3305,205.7091-81.1916,246.9341Z"/></g><path class="cls-15" d="M1487.3036,1880.5054q-33.3,151.20015-85.8499,282.9a69.08345,69.08345,0,0,1-84.35,40.3501l-141.2-43.0499a69.27716,69.27716,0,0,1-48.9502-63.7c2.9001,1.5997,5.8503,3.2498,8.8001,5,243.3999,142.3999,346.7001-265.4501,346.7001-265.4501A68.9081,68.9081,0,0,1,1487.3036,1880.5054Z"/><path class="cls-10" d="M1337.0335,2221.7124a83.31013,83.31013,0,0,1-24.3262-3.6279l-141.1572-43.0493a84.54318,84.54318,0,0,1-57.5098-99.4336c23.191-101.1499,52.1143-196.6211,85.9693-283.7622,15.8081-40.6934,61.0302-62.5611,102.9516-49.7828l141.2915,43.0909c41.7334,12.727,67.0752,56.04,57.6953,98.6059-22.1093,100.3296-51.2304,196.2866-86.5551,285.2051C1402.5047,2201.3999,1370.6785,2221.71,1337.0335,2221.7124Zm-58.5571-453.3105a54.22057,54.22057,0,0,0-50.503,34.3017c-33.33,85.7935-61.8237,179.8633-84.6899,279.6021a54.43671,54.43671,0,0,0,37.0166,64.0332l141.1572,43.0493h.0025c26.7651,8.1763,55.7861-5.6714,66.0522-31.5064,34.7315-87.4218,63.374-181.8261,85.1392-280.5835a54.455,54.455,0,0,0-37.1485-63.4545l-141.2915-43.0909A53.85643,53.85643,0,0,0,1278.4764,1768.4019Z"/><g class="cls-16"><path class="cls-17" d="M1221.483,2071.9807a19.55193,19.55193,0,1,1-24.4066,12.9953A19.552,19.552,0,0,1,1221.483,2071.9807Z"/><circle class="cls-17" cx="1238.44622" cy="2016.38172" r="19.5519" transform="translate(-1124.58254 2141.43922) rotate(-61.47148)"/><circle class="cls-17" cx="1261.11515" cy="1942.08187" r="19.55196" transform="translate(-891.93432 2794.41479) rotate(-78.59906)"/><circle class="cls-17" cx="1283.78407" cy="1867.78197" r="19.55194" transform="translate(-511.63011 484.59762) rotate(-17.88746)"/><circle class="cls-17" cx="1337.89393" cy="2127.93945" r="19.55188" transform="matrix(0.06359, -0.99798, 0.99798, 0.06359, -870.81881, 3327.80383)"/><circle class="cls-17" cx="1360.56285" cy="2053.63958" r="19.55196" transform="translate(-921.50123 2981.40588) rotate(-78.59906)"/><circle class="cls-17" cx="1383.23178" cy="1979.33967" r="19.55198" transform="translate(-907.83773 1216.37428) rotate(-36.63416)"/><circle class="cls-17" cx="1405.90072" cy="1905.03982" r="19.55192" transform="translate(-312.42657 276.21053) rotate(-10.10468)"/><circle class="cls-17" cx="1288.17007" cy="2072.16058" r="19.55198" transform="translate(-982.00259 1177.98629) rotate(-36.63416)"/><path class="cls-17" d="M1316.5447,1979.1598a19.55193,19.55193,0,1,1-24.4066,12.9953A19.552,19.552,0,0,1,1316.5447,1979.1598Z"/><circle class="cls-17" cx="1333.50792" cy="1923.56083" r="19.5519" transform="translate(-993.37138 2176.46857) rotate(-61.47149)"/><circle class="cls-17" cx="1356.17685" cy="1849.26098" r="19.55196" transform="translate(-724.67445 2813.12802) rotate(-78.59906)"/></g><circle class="cls-15" cx="1208.27948" cy="2079.02873" r="19.55191" transform="translate(-1195.15736 2002.92942) rotate(-58.02238)"/><circle class="cls-15" cx="1230.94843" cy="2004.72882" r="19.55192" transform="translate(-332.63053 247.06203) rotate(-10.10468)"/><circle class="cls-15" cx="1253.61733" cy="1930.42897" r="19.55195" transform="translate(-1005.28293 2372.56253) rotate(-68.07485)"/><circle class="cls-15" cx="1276.28628" cy="1856.12908" r="19.55198" transform="translate(-855.44336 1128.22072) rotate(-36.63416)"/><circle class="cls-15" cx="1330.39613" cy="2116.28655" r="19.55192" transform="translate(-339.20359 255.89428) rotate(-9.75085)"/><circle class="cls-15" cx="1353.06502" cy="2041.98668" r="19.55195" transform="translate(-1046.4575 2534.72004) rotate(-68.07485)"/><path class="cls-15" d="M1381.4396,1948.9859a19.55193,19.55193,0,1,1-24.4065,12.9953A19.55206,19.55206,0,0,1,1381.4396,1948.9859Z"/><circle class="cls-15" cx="1398.40287" cy="1893.38692" r="19.55191" transform="translate(-948.24942 2076.87445) rotate(-58.02239)"/><circle class="cls-15" cx="1280.67228" cy="2060.50768" r="19.55198" transform="translate(-976.53038 1171.21045) rotate(-36.63416)"/><circle class="cls-15" cx="1303.34118" cy="1986.20783" r="19.55191" transform="translate(-1071.70339 2039.90191) rotate(-58.02238)"/><circle class="cls-15" cx="1326.01013" cy="1911.90795" r="19.55192" transform="translate(-304.65253 252.19889) rotate(-9.75085)"/><circle class="cls-15" cx="1348.67903" cy="1837.60808" r="19.55195" transform="translate(-859.6094 2402.58664) rotate(-68.07485)"/><circle class="cls-18" cx="1212.66547" cy="2082.45717" r="19.55199" transform="translate(-950.61126 1020.6572) rotate(-33.64355)"/><circle class="cls-18" cx="1235.33443" cy="2008.15733" r="19.55192" transform="translate(-333.16395 247.88467) rotate(-10.10468)"/><circle class="cls-18" cx="1258.00332" cy="1933.85742" r="19.5519" transform="translate(-1041.86167 2115.51073) rotate(-61.47149)"/><circle class="cls-18" cx="1280.67228" cy="1859.55757" r="19.55194" transform="translate(-509.25439 483.24425) rotate(-17.88746)"/><circle class="cls-18" cx="1334.78212" cy="2119.71503" r="19.55192" transform="translate(-351.19377 267.06277) rotate(-10.10467)"/><circle class="cls-18" cx="1357.45103" cy="2045.41515" r="19.55188" transform="translate(-770.14817 3270.04493) rotate(-86.35394)"/><circle class="cls-18" cx="1380.11998" cy="1971.11528" r="19.55194" transform="translate(-538.71207 519.18203) rotate(-17.88746)"/><path class="cls-18" d="M1408.4945,1878.1145a19.55193,19.55193,0,1,1-24.4065,12.9953A19.552,19.552,0,0,1,1408.4945,1878.1145Z"/><circle class="cls-18" cx="1285.05828" cy="2063.93617" r="19.55194" transform="translate(-571.81694 494.47074) rotate(-17.88746)"/><circle class="cls-18" cx="1307.72717" cy="1989.63628" r="19.55199" transform="translate(-883.26341 1057.77623) rotate(-33.64355)"/><circle class="cls-18" cx="1330.39613" cy="1915.33643" r="19.55192" transform="translate(-315.40421 263.12314) rotate(-10.10468)"/><circle class="cls-18" cx="1353.06502" cy="1841.03655" r="19.55188" transform="translate(-570.29033 3074.28621) rotate(-86.35394)"/><path class="cls-19" d="M2049.3155,2777.9743l.0152-.0778c-56.3223-49.0293-243.3136-55.6378-323.6782-24.8313l-.0025.0138c-65.9329,20.1092-130.4938,105.4757-157.55,217.908-31.0202,128.9047-1.973,248.5818,64.8883,282.9242l-.0086.0455c59.5835,33.5815,249.5743,56.9354,318.5511,21.5454l.0115-.0586c65.7367-20.4233,130.0068-105.6232,156.9858-217.735C2138.6548,2932.5165,2112.1167,2816.0431,2049.3155,2777.9743Z"/><ellipse class="cls-20" cx="1962.57195" cy="3022.58515" rx="262.46545" ry="150.1228" transform="translate(-1435.29412 4223.50805) rotate(-76.4694)"/><path class="cls-12" d="M2081.5808,3051.1985c-8.4,34.9002-21.1999,66.6-36.85,93.4002-20.8999,35.85-46.8499,62.8998-73.9001,76.9999-19.35,10.1501-39.2499,13.6499-58.3499,9.0499-65.7001-15.7998-96.55-121.7999-68.9002-236.6998,27.6502-114.9002,103.3502-195.2502,169.05-179.4501C2078.3807,2830.3486,2109.2306,2936.2986,2081.5808,3051.1985Z"/><g class="cls-21"><path class="cls-14" d="M1878.3259,2904.2527l10.5503,26.4328,52.562-62.4794,34.4112-12.9249-8.4187-37.501S1903.974,2878.8117,1878.3259,2904.2527Z"/></g><g class="cls-21"><path class="cls-14" d="M2044.7308,3144.5987c-20.8999,35.85-46.8499,62.8998-73.9001,76.9999l-19.2999-32.2001,32.55-39.5498,47.5501-34.5502Z"/></g><path class="cls-10" d="M1929.5042,3242.6621a82.32555,82.32555,0,0,1-19.3408-2.29c-35.4273-8.523-62.6831-39.8169-76.7481-88.1153-13.5009-46.3549-13.3496-103.4082.4273-160.6494,13.7744-57.2436,39.5947-108.1201,72.7051-143.2568,34.4995-36.6113,73.02-52.0874,108.4326-43.5523,35.4272,8.523,62.6831,39.8169,76.7505,88.1153,13.4985,46.3525,13.3447,103.4106-.4297,160.6494h0c-13.7744,57.2436-39.5948,108.1201-72.7051,143.2568C1990.2928,3226.854,1959.2869,3242.6621,1929.5042,3242.6621Zm66.2183-420.1343c-24.2383,0-50.2246,13.6524-74.6192,39.5386-30.7593,32.6441-54.8437,80.3101-67.8174,134.2188-12.9736,53.9111-13.2104,107.3169-.6689,150.3784,11.9751,41.1157,34.0723,67.4902,62.2241,74.2651,28.1445,6.77,59.8291-6.6577,89.1992-37.8247,30.7593-32.644,54.8438-80.3101,67.8174-134.2187h0c12.9736-53.9112,13.2105-107.3169.669-150.3785-11.9751-41.1157-34.0723-67.4902-62.2242-74.2651A62.152,62.152,0,0,0,1995.7225,2822.5278Z"/><path class="cls-22" d="M2066.3806,2978.0985a292.4289,292.4289,0,0,1-34.7497,137.2c-21.6501,39.4501-50.8503,66.8002-80.1001,74.1a60.18632,60.18632,0,0,1-29.2002.4502c-52.8497-12.75-77.6498-97.9001-55.3998-190.3.4999-2.0502.9998-4.1,1.55-6.1002,23.3499-89.1,82.6499-150.4998,134.35-138.0999C2042.2809,2864.8487,2066.1307,2914.8487,2066.3806,2978.0985Z"/><path class="cls-23" d="M2066.3806,2978.0985c-50.8499-22.2-96.25,15.35-96.25,15.35-47.3999-34.45-87.2497,0-87.2497,0h-14.4001c23.3499-89.1,82.6499-150.4998,134.35-138.0999C2042.2809,2864.8487,2066.1307,2914.8487,2066.3806,2978.0985Z"/><g class="cls-21"><path class="cls-14" d="M2031.6309,3115.2985c-21.6501,39.4501-50.8503,66.8002-80.1001,74.1-6.6501-10.4498-36.5-58.8497-46.0001-95.7498,0,0,41.7502,4.4998,55.3-21.9C1960.8307,3071.7487,1991.0806,3110.0986,2031.6309,3115.2985Z"/></g><path class="cls-10" d="M2023.92,3141.7496c-65.9826,100.878-161.5794,62.3162-173.6051-50.008-8.3362-79.8387,19.8379-174.1649,84.2824-225.4873,22.8824-18.0487,56.7157-27.944,84.5215-14.2132,27.2247,12.9446,42.1643,40.869,48.8215,68.3876a6.1295,6.1295,0,0,1-11.6624,3.6885,182.68381,182.68381,0,0,0-7.7859-17.5379c-21.738-43.3634-62.8305-54.7811-101.5686-24.0755-39.3507,31.3372-61.1434,82.0454-71.0929,130.8142-7.3468,37.2565-8.0315,76.5681,3.5326,112.7426,17.3855,54.8303,62.8931,73.2808,109.8535,37.2214,10.2518-7.4915,19.427-16.6811,28.0975-26.4604,3.2717-3.7872,9.2628.7856,6.6059,4.928Z"/><path class="cls-10" d="M1913.0442,3104.5444a42.04852,42.04852,0,0,1-9.8608-1.1718c-15.6665-3.7696-27.9517-16.1426-34.5898-34.8389-6.1133-17.2095-6.7359-38.0835-1.7554-58.7744,4.978-20.6958,15.0293-38.999,28.3008-51.543,14.4214-13.6304,30.9814-19.0698,46.6577-15.2881,15.664,3.7696,27.9492,16.1426,34.5874,34.8389,6.1133,17.2095,6.7358,38.0835,1.7554,58.7744C1968.452,3076.8003,1941.0594,3104.5444,1913.0442,3104.5444Zm19.0308-142.7636c-7.5244,0-15.5884,3.7793-23.1958,10.9692-10.4883,9.9121-18.5132,24.7168-22.5977,41.687-4.082,16.9702-3.6718,33.8037,1.1573,47.4024,4.3017,12.1093,11.5551,19.956,20.4223,22.0898,19.6143,4.707,42.9077-19.1211,50.835-52.0654,4.082-16.9702,3.6719-33.8037-1.1572-47.4024-4.3018-12.1093-11.5552-19.956-20.4224-22.0898A21.52054,21.52054,0,0,0,1932.075,2961.7808Z"/><path class="cls-10" d="M1843.8035,3303.3506c-81.6748.0024-175.9277-18.2471-215.7324-40.6836q-.25635-.1428-.4981-.3003c-72.0068-37.8296-101.1108-161.0962-69.1943-293.7183,27.1192-112.6953,92.9053-203.0004,163.8281-224.9731,84.9634-32.4756,274.7486-24.1113,333.4034,26.4307,66.7846,41.6381,93.1347,163.2226,62.6391,289.9414-26.9385,111.9506-92.1948,201.9922-162.6343,224.5971C1929.4432,3297.8794,1888.5008,3303.3506,1843.8035,3303.3506Zm-205.1636-57.688c57.334,31.5991,241.9288,54.1455,307.6001,21.3086a9.8813,9.8813,0,0,1,2.3365-1.0791c64.3676-19.9951,124.7412-104.5996,150.2295-210.5225,28.6816-119.1894,5.6884-232.2534-54.6729-268.8427a9.98831,9.98831,0,0,1-2.1728-1.7774c-53.8672-45.3955-233.7403-52.334-312.2828-22.5171a10.05272,10.05272,0,0,1-1.1108.4126c-64.5801,19.6948-125.1587,104.3604-150.7446,210.6812-29.4263,122.2827-3.7451,239.0844,59.7339,271.6919A9.59589,9.59589,0,0,1,1638.6399,3245.6626Zm312.8907,29.8389h0Z"/><path class="cls-19" d="M1113.7727,2726.6244l.0169-.0778c-62.3676-49.0293-269.4296-55.6379-358.4202-24.8313l-.0027.0138c-73.0098,20.1092-144.5003,105.4757-174.4607,217.908-34.3497,128.9047-2.1847,248.5818,71.8531,282.9242l-.0094.0454c65.9788,33.5816,276.3622,56.9355,352.7426,21.5454l.0128-.0585c72.7926-20.4233,143.961-105.6232,173.8359-217.735C1212.7012,2881.1666,1183.3147,2764.6932,1113.7727,2726.6244Z"/><ellipse class="cls-20" cx="1017.7186" cy="2971.23523" rx="264.26837" ry="165.10202" transform="matrix(0.28617, -0.95818, 0.95818, 0.28617, -2120.49669, 3096.11404)"/><path class="cls-12" d="M1149.5012,2999.8486c-9.3015,34.9002-23.4754,66.6-40.8052,93.4002-23.1433,35.8499-51.8786,62.8998-81.8322,76.9998-21.4269,10.1502-43.4628,13.6499-64.6129,9.05-72.752-15.7998-106.9132-121.7999-76.2955-236.6998,30.6179-114.9002,114.4433-195.2502,187.1949-179.4501C1145.9577,2778.9986,1180.1189,2884.9487,1149.5012,2999.8486Z"/><g class="cls-21"><path class="cls-14" d="M924.43,2852.9028l11.6827,26.4327,58.2037-62.4793,38.1048-12.9249-9.3223-37.501S952.831,2827.4617,924.43,2852.9028Z"/></g><g class="cls-21"><path class="cls-14" d="M1108.696,3093.2488c-23.1433,35.8499-51.8786,62.8998-81.8322,76.9998l-21.3715-32.2,36.0438-39.5498,52.6538-34.5502Z"/></g><path class="cls-10" d="M980.5198,3191.7637a96.26978,96.26978,0,0,1-20.4785-2.1802c-27.6684-6.0132-51.2427-23.8477-68.1763-51.5772-30.0317-49.1796-36.0473-123.2421-16.0962-198.1201,31.9971-120.0805,121.5503-203.9526,199.629-186.9995,27.6684,6.0132,51.2451,23.8477,68.1762,51.5796,30.0293,49.1748,36.0425,123.2471,16.0938,198.1177h0C1130.4393,3112.2715,1053.181,3191.7637,980.5198,3191.7637Zm73.7012-420.0904c-63.0542,0-131.355,73.208-158.1152,173.6329-18.501,69.4287-13.3716,137.3657,13.7207,181.7309,13.8623,22.7026,32.771,37.2192,54.6826,41.98,67.2729,14.6313,145.6763-62.4756,174.8218-171.853h0c18.5009-69.4263,13.374-137.3633-13.7183-181.731-13.8623-22.7026-32.771-37.2192-54.6826-41.98A78.52876,78.52876,0,0,0,1054.221,2771.6733Z"/><path class="cls-22" d="M1132.6695,2926.7486a258.62854,258.62854,0,0,1-9.0244,67.5,266.16139,266.16139,0,0,1-29.4552,69.7c-23.9739,39.4501-56.3082,66.8002-88.6976,74.1a73.59178,73.59178,0,0,1-32.3343.4502c-58.5224-12.75-85.9844-97.9001-61.3461-190.3.5535-2.0502,1.107-4.1001,1.7163-6.1002,25.8562-89.1,91.5211-150.4999,148.7704-138.1C1105.9831,2813.4988,1132.3928,2863.4988,1132.6695,2926.7486Z"/><path class="cls-23" d="M1132.6695,2926.7486c-56.3078-22.2-106.5809,15.35-106.5809,15.35-52.4876-34.4501-96.6147,0-96.6147,0H913.5282c25.8562-89.1,91.5211-150.4999,148.7704-138.1C1105.9831,2813.4988,1132.3928,2863.4988,1132.6695,2926.7486Z"/><g class="cls-21"><path class="cls-14" d="M1094.1899,3063.9486c-23.9739,39.4501-56.3082,66.8002-88.6976,74.1-7.3639-10.4498-40.4177-58.8498-50.9375-95.7498,0,0,46.2315,4.4998,61.2356-21.9C1015.7904,3020.3988,1049.2872,3058.7487,1094.1899,3063.9486Z"/></g><path class="cls-10" d="M1085.3375,3090.6966c-33.6421,50.7027-103.9078,83.712-154.267,33.5691-41.8014-44.2386-44.7255-111.5818-32.3966-167.852,9.4145-42.5216,29.1879-83.1044,58.2957-115.6105,29.704-32.9807,77.8711-59.6224,122.5364-40.8214,14.673,6.0829,26.8632,16.7155,35.7535,28.8737,9.013,12.1887,14.9002,25.9815,18.7568,39.9497a6.45022,6.45022,0,0,1-12.1658,4.2114c-5.1485-12.311-11.5594-23.9706-19.9585-33.5693-43.9839-51.6964-109.6598-14.5959-140.9027,31.5285-32.5689,45.6238-48.7869,103.5539-45.1231,159.4603,5.2573,77.1692,59.0752,129.6614,132.0486,80.8683a197.91377,197.91377,0,0,0,30.7616-26.1562c3.6294-3.8258,9.7224,1.3462,6.6611,5.5484Z"/><path class="cls-10" d="M962.9075,3053.7192a49.8448,49.8448,0,0,1-10.5957-1.1352c-13.5351-2.9419-24.8633-11.3355-32.7661-24.2774-11.4868-18.811-14.126-44.4238-7.2388-70.2685,11.9873-44.9756,48.0689-74.397,82.0459-67.0215,13.5352,2.9419,24.8658,11.3355,32.7686,24.2773,11.4868,18.8111,14.1235,44.4263,7.2388,70.2686h0C1023.6155,3025.8823,993.5325,3053.7192,962.9075,3053.7192Zm21.0864-142.7612c-20.791,0-43.3349,22.417-51.3501,52.5-5.3344,20.0147-3.5156,40.1587,4.8633,53.8818,3.3692,5.5176,9.4483,12.544,19.2725,14.6778,22.2729,4.8559,48.4643-18.9234,57.2436-51.875h0c5.3345-20.0147,3.5157-40.1563-4.8657-53.8794-3.3691-5.52-9.4482-12.5464-19.2724-14.6802A27.61065,27.61065,0,0,0,983.9939,2910.958Z"/><path class="cls-10" d="M886.1497,3252.562c-90.1465.0025-194.2187-18.2056-238.1738-40.5786-.1856-.0952-.3687-.1953-.5493-.2979-79.9195-37.8808-112.1729-161.5917-76.6895-294.7583,30.0806-112.8759,102.8882-203.2788,181.2964-225.1928,93.772-32.3999,303.2935-24.0747,367.9736,26.3159,74.1797,41.7163,103.4131,163.7646,69.502,291.0181-29.8902,112.1606-102.1387,202.3169-180.0391,224.8364C980.6321,3247.1079,935.4661,3252.5596,886.1497,3252.562Zm-227.8174-58.9258c63.6841,31.7115,268.9258,54.314,341.9507,21.3257a10.47793,10.47793,0,0,1,2.3804-1.001c71.4111-20.0341,138.3276-104.5532,166.5088-210.3125,31.6259-118.6816,6.2036-231.3061-60.4541-267.7929a10.54976,10.54976,0,0,1-2.3218-1.7237c-59.8804-45.5908-259.8389-52.5683-347.1118-22.6367a10.26461,10.26461,0,0,1-1.1231.3784c-71.6528,19.7364-138.7988,104.3189-167.0874,210.4737-32.4487,121.7724-4.0259,238.1347,66.1133,270.6689A10.97365,10.97365,0,0,1,658.3323,3193.6362Zm347.1607,30.5152h0Z"/><path class="cls-19" d="M3045.1396,2726.6244l.0165-.0778c-60.822-49.0293-262.7525-55.6379-349.5377-24.8313l-.0027.0138c-71.2004,20.1092-140.9192,105.4757-170.1371,217.908-33.4985,128.9047-2.1306,248.5818,70.0724,282.9242l-.0092.0454c64.3437,33.5816,269.5134,56.9355,344.0008,21.5454l.0126-.0585c70.9885-20.4233,140.3932-105.6232,169.5277-217.735C3141.6165,2881.1666,3112.9582,2764.6932,3045.1396,2726.6244Z"/><ellipse class="cls-20" cx="2951.46595" cy="2971.23523" rx="263.75309" ry="161.32499" transform="translate(-709.97283 5004.27631) rotate(-74.2328)"/><path class="cls-12" d="M3079.9827,2999.8486c-9.071,34.9002-22.8937,66.6-39.794,93.4002-22.5697,35.8499-50.5929,62.8998-79.8042,76.9998-20.8959,10.1502-42.3857,13.6499-63.0117,9.05-70.949-15.7998-104.2636-121.7999-74.4047-236.6998,29.8592-114.9002,111.6071-195.2502,182.5558-179.4501C3076.527,2778.9986,3109.8416,2884.9487,3079.9827,2999.8486Z"/><g class="cls-21"><path class="cls-14" d="M2860.4893,2852.9028l11.3932,26.4327,56.7612-62.4793,37.1605-12.9249-9.0913-37.501S2888.1864,2827.4617,2860.4893,2852.9028Z"/></g><g class="cls-21"><path class="cls-14" d="M3040.1887,3093.2488c-22.5697,35.8499-50.5929,62.8998-79.8042,76.9998l-20.8419-32.2,35.1506-39.5498,51.3489-34.5502Z"/></g><path class="cls-10" d="M2915.1683,3191.6318a91.95391,91.95391,0,0,1-20.0342-2.1875c-26.5405-5.9155-49.2603-23.2617-65.7056-50.166-30.022-49.1137-36.2012-123.6181-16.5356-199.2969,31.206-120.083,118.6206-203.9501,194.9048-186.9555,26.5405,5.9155,49.2602,23.2617,65.7055,50.166,30.022,49.1113,36.2036,123.6157,16.5381,199.2969h0C3061.5379,3112.1641,2986.1302,3191.6318,2915.1683,3191.6318Zm71.875-420.0903c-61.3965,0-127.9346,73.2275-154.0332,173.6694-18.0054,69.2823-12.583,139.4898,14.1504,183.2276,13.435,21.98,31.5869,36.0595,52.4951,40.7178,65.4785,14.5996,141.8457-62.5245,170.2685-171.897,18.0054-69.2822,12.5806-139.4922-14.1553-183.23-13.435-21.9775-31.5869-36.0571-52.4926-40.7153A74.50763,74.50763,0,0,0,2987.0433,2771.5415Zm92.9394,228.3325h0Z"/><path class="cls-22" d="M3063.5681,2926.7486a264.81019,264.81019,0,0,1-8.8008,67.5,269.82377,269.82377,0,0,1-28.7252,69.7c-23.3797,39.4501-54.9127,66.8002-86.4995,74.1a70.03444,70.03444,0,0,1-31.533.4502c-57.072-12.75-83.8534-97.9001-59.8258-190.3.5398-2.0502,1.0797-4.1001,1.6738-6.1002,25.2154-89.1,89.253-150.4999,145.0836-138.1C3037.543,2813.4988,3063.2982,2863.4988,3063.5681,2926.7486Z"/><path class="cls-23" d="M3063.5681,2926.7486c-54.9124-22.2-103.9396,15.35-103.9396,15.35-51.1868-34.4501-94.2204,0-94.2204,0h-15.5505c25.2154-89.1,89.253-150.4999,145.0836-138.1C3037.543,2813.4988,3063.2982,2863.4988,3063.5681,2926.7486Z"/><g class="cls-21"><path class="cls-14" d="M3026.0421,3063.9486c-23.3797,39.4501-54.9127,66.8002-86.4995,74.1-7.1813-10.4498-39.416-58.8498-49.6751-95.7498,0,0,45.0857,4.4998,59.7181-21.9C2949.5856,3020.3988,2982.2522,3058.7487,3026.0421,3063.9486Z"/></g><path class="cls-10" d="M3017.4836,3090.6216c-33.7076,51.694-102.2239,83.6454-151.7024,32.5031-39.8232-44.8088-42.4142-110.6553-30.6171-166.3774,12.4632-55.8604,41.1535-110.7952,89.0688-144.0378,24.8972-16.8155,58.8429-25.4277,87.6795-12.5532,14.5128,6.1666,26.3808,16.9222,34.9807,29.0523,8.7189,12.1726,14.3774,25.8414,18.0786,39.6674a6.36986,6.36986,0,0,1-12.0471,4.0631c-4.9991-12.2284-11.2176-23.8387-19.3839-33.465-43.5105-52.4298-107.414-14.0863-137.7364,32.0591-31.5208,45.7112-46.9043,103.0478-43.5851,158.4183,3.0519,52.2659,33.0078,113.2691,94.0749,97.8781,24.1866-6.4137,46.1553-23.0109,64.4912-42.5501,3.5079-3.8595,9.635,1.1252,6.6983,5.3421Z"/><path class="cls-10" d="M2898.0101,3053.5874a47.863,47.863,0,0,1-10.4102-1.1426c-13.02-2.9028-23.9722-11.0913-31.665-23.6792-11.3208-18.5205-14.0894-44.9243-7.4097-70.6323,11.687-44.9756,46.9287-74.3774,80.2368-66.9775,13.02,2.9028,23.9722,11.0913,31.6651,23.6792,11.3208,18.518,14.0893,44.9243,7.4096,70.6298h0C2957.3631,3025.7725,2927.9686,3053.5874,2898.0101,3053.5874Zm20.5493-142.7637c-20.1807,0-42.0972,22.4414-49.917,52.5367-5.293,20.3613-3.4131,40.7592,5.0244,54.5654,3.2666,5.3442,9.1211,12.1533,18.4546,14.2309,21.5454,4.8218,47.0386-18.9672,55.5981-51.9165v-.0024c5.293-20.3589,3.4131-40.7568-5.0244-54.563-3.2666-5.3442-9.1211-12.1533-18.4546-14.231A26.01679,26.01679,0,0,0,2918.5594,2910.8237Z"/><path class="cls-10" d="M2823.1688,3252.4229c-87.9761,0-189.5435-18.2178-232.4341-40.6055-.1856-.0952-.3638-.1953-.5396-.3003-77.8955-37.8711-109.3432-161.4673-74.7754-294.4946,29.3238-112.8296,100.3394-203.2105,176.8384-225.1416,91.5161-32.4121,295.9937-24.0747,359.1333,26.3452,72.2876,41.6968,100.7837,163.6279,67.749,290.747-29.1333,112.107-99.5996,202.2364-175.5932,224.7803C2915.388,3246.9688,2871.3157,3252.4229,2823.1688,3252.4229Zm-222.0191-58.6182c62.0557,31.6894,262.0166,54.2798,333.1616,21.3232a10.25053,10.25053,0,0,1,2.3706-1.0229c69.6094-20.0244,134.8487-104.563,162.3413-210.3613,30.8765-118.8111,6.0767-231.5455-58.9697-268.0567a10.38354,10.38354,0,0,1-2.29-1.7407c-58.3521-45.5322-253.1616-52.5098-338.2031-22.6025a10.27992,10.27992,0,0,1-1.1207.3857c-69.8413,19.7266-135.3051,104.3286-162.9028,210.5225-31.6797,121.9018-3.9599,238.374,64.4776,270.9252A10.61782,10.61782,0,0,1,2601.1497,3193.8047Zm338.3936,30.3467h0Z"/><path class="cls-24" d="M3166.7306,2970.0988s-361.9998-5-420.4998,0c-58.5001,4.95-128.9002,79.2999-128.9002,79.2999H2141.7807c29.7501-69.1501,66.9501-256.6,36.4502-352.6501-30.5002-96.0999-269.2502-88.4-319.8502-60.9-50.5999,27.5501-84.05,239.5001-84.05,239.5001-15.8999,171.4499-82.3001,218.1-170.5499,210.9.3-.05.25-.1501-.1001-.3-20.4001-7.1499-1108.1-105.2499-1118.3499-122.0502-10.4001-17.1499-119.7501-123.4997-80.35-267.1499,39.45-143.7,121.25-278.0499,213.5-303.3499,92.2-25.3,557.8501-46.1499,557.8501-46.1499s138.3499-444.7501,211.1999-553.3503c72.8998-108.5998,249.1001-130.9497,249.1001-130.9497,362.1499-40.1501,927.0999-6.9,1030.2499,31.7499,63.6999,23.8999,195.7498,204.2499,293.5998,354.5999,60.6501,93.2502,108.1501,175,118.0002,200.8002,25.7498,67.3999,27.75,124.95,27.75,124.95a118.48812,118.48812,0,0,1,26.0998,10.0997c16.3501,8.5001,31.3501,20.8002,44.8502,36.4002l.05.05v.0501C3260.0308,2517.5988,3282.4808,2737.7486,3166.7306,2970.0988Z"/><g class="cls-13"><path class="cls-14" d="M615.9836,2434.5562s109.0909-21.3364,228.0992-34.2289,397.4752-42.6446,397.4752-42.6446l-88.6894-9.3309-479.3643,29.1656-55.0413,15.8677-34.9331,14.959Z"/><path class="cls-14" d="M1460.4903,1725.5495s248.411-62.5776,660.4646-43.2387,545.194,40.0993,632.9626,95.1736c0,0-27.0538-72.1241-179.3946-107.8224s-732.5062-24.9302-732.5062-24.9302S1566.8977,1659.4495,1460.4903,1725.5495Z"/><path class="cls-14" d="M1787.7192,2503.4678s-100.4649,50.4377-107.5052,93.4626,51.3926,79.9662,94.5109,35.6485,44.6058-59.261,75.4736-73.1737S1841.2729,2494.1703,1787.7192,2503.4678Z"/><path class="cls-14" d="M2701.1075,2667.1041c87.1478-142.0914,187.0755-262.8821,362.4637-257.9053,58.9312,3.8971,58.9312,21.8723,42.6605,38.4839-129.7574,59.9475-241.6348,142.0618-344.5044,235.3443C2717.8431,2735.162,2675.8771,2729.1433,2701.1075,2667.1041Z"/><path class="cls-14" d="M2147.7191,2409.0504c-21.0188,121.7994,405.409,187.3926,583.9984,0Z"/></g><path class="cls-11" d="M2178.2309,2696.7486c-30.5002-96.0999-269.2502-88.4-319.8502-60.9-50.5999,27.5501-84.05,239.5001-84.05,239.5001-15.8999,171.4499-82.3001,218.1-170.5499,210.9l-.1001-.3-24.2499-75.1999,17.8998-163.3502s66.9,117.1002,98.15,71.0001c31.25-46.1499,52.6502-230.4499,126.0001-304.8499S2167.9806,2569.0987,2178.2309,2696.7486Z"/><path class="cls-11" d="M3132.3306,2385.1485c-120.9997-26.4999-238.9499,21.6501-244.7,24.0503,236.1502-137.3501,69.1-358.5,69.1-358.5l3.75-1.4002c60.6501,93.2502,108.1501,175,118.0002,200.8002,25.7498,67.3999,27.75,124.95,27.75,124.95A118.48812,118.48812,0,0,1,3132.3306,2385.1485Z"/><path class="cls-11" d="M3166.7306,2970.0988s-361.9998-5-420.4998,0c-58.5001,4.95-128.9002,79.2999-128.9002,79.2999H2216.9308c16.9001-41.4999,18.5498-107.3001,18.5498-107.3001s168.6002,38.9002,245.2503,0c76.6498-38.8998,95.0497-238.0499,95.0497-238.0499l65.7502-15.0501s-.4001,141.25,25.35,170c25.7999,28.75,313.4,42.6502,455.6-36.0998,140.7998-78.0002,56.4999-394.7,54.75-401.25C3260.0308,2517.5988,3282.4808,2737.7486,3166.7306,2970.0988Z"/><path class="cls-11" d="M1032.4212,2731.0711s459.2649,17.8512,491.2484-58.0165,19.308-181.4877,203.0424-216.0744,258.3355-35.5388,339.6713,43.0364c0,0-209.4906-1.0116-278.6641,3.4512s-188.9256,214.2149-193.3885,242.4793,7.4381,99.5116,2.9752,101.45-114.5454-44.9895-114.5454-44.9895"/><path class="cls-25" d="M2871.2308,2191.4986c-6.3001,47.5501-34.05,137.6001-150.95,178.75H2182.9306c-41.0498-23.5-61.55-60-61.9998-109.2498l87.85-337.8,26.25-101.0001a59.75214,59.75214,0,0,1,57.8-44.7h325.1999s77.15-5.35,135.1501,121.1499c44.4001,96.9,90.9998,198.9999,110.3998,241.55A93.27047,93.27047,0,0,1,2871.2308,2191.4986Z"/><g class="cls-26"><path class="cls-27" d="M2644.0308,2370.2486h-177.15l-258.1-447.0498,26.25-101.0001a59.75214,59.75214,0,0,1,57.8-44.7h8.9499Z"/></g><path class="cls-25" d="M2161.1807,1822.2988l-128.8501,377.8497-29.9499,87.8501a112.29595,112.29595,0,0,1-108.75,75.95l-40.55-.95-275.1001-6.3999-401.6497-9.3499,157.6999-413.1501,53.5-140.2002c20.1999-16.3497,61.4499-28.7997,115.1499-37.7499,41.7501-6.9498,91-11.85,143.75-14.8999,38.2501-2.15,78.3999-3.4,118.8-3.6999,136.4999-1.1002,276.3501,7.9498,360.1999,23.75A46.71874,46.71874,0,0,1,2161.1807,1822.2988Z"/><g class="cls-28"><path class="cls-29" d="M1853.0807,2362.9986l-275.1001-6.3999-243.9498-422.5,53.5-140.2002c20.1999-16.3497,61.4499-28.7997,115.1499-37.7499Z"/></g><g class="cls-30"><path class="cls-31" d="M2032.3306,2200.1485l-29.9499,87.8501a111.275,111.275,0,0,1-19.8499,35.4001l-336.1001-582.15c38.2501-2.15,78.3999-3.4,118.8-3.6999Z"/></g><path class="cls-10" d="M2720.2781,2385.2329H2182.9246a15.00943,15.00943,0,0,1-7.4536-1.9824c-45.6641-26.1426-69.0527-67.2363-69.5166-122.1362a15.026,15.026,0,0,1,.4834-3.9014l114.082-438.7915a74.706,74.706,0,0,1,72.2949-55.9033h324.8707c8.9379-.3272,89.7241.3589,149.1235,129.9023,44.4189,96.875,91.0156,198.9966,110.4272,241.5601a108.706,108.706,0,0,1,8.8843,59.5092c-7.0093,52.6343-37.229,147.4219-160.8667,190.8936A15.01875,15.01875,0,0,1,2720.2781,2385.2329Zm-533.2544-30h530.6617c106.5332-38.5254,132.6416-120.2197,138.6987-165.7031a78.74985,78.74985,0,0,0-6.4429-43.103c-19.4067-42.5538-65.9936-144.6509-110.4028-241.5015-52.3389-114.1504-117.8638-112.5928-120.6543-112.4316-.2246.0097-.6372.0244-.8618.0244H2292.8147a44.70444,44.70444,0,0,0-43.2617,33.4521l-113.5717,436.8311C2136.826,2304.5029,2153.5447,2334.791,2187.0237,2355.2329Z"/><path class="cls-10" d="M1620.2928,3101.9346c-5.7617,0-11.6553-.2466-17.7149-.7398a15.03307,15.03307,0,0,1-4.6093-1.1279c-21.0498-3.5498-175.1954-18.728-338.086-34.7705-166.7187-16.4185-355.6836-35.0293-508.1274-51.2988-271.1011-28.9356-273.8233-33.4082-279.2456-42.3169-.8252-1.355-4.2774-5.6177-7.3242-9.3775-27.4561-33.894-111.0132-137.0361-74.6583-269.5434,34.5484-125.918,113.9356-283.6695,223.9698-313.8404,86.1059-23.6108,479.2529-42.8271,550.6396-46.1547,21.5064-68.357,141.9605-445.9351,209.9634-547.2437,75.8228-112.9614,252.1875-136.4844,259.6582-137.4292,363.938-40.3687,928.4937-8.2703,1037.3999,32.572,109.1748,40.9375,394.6582,496.9519,420.3174,564.0589a459.94856,459.94856,0,0,1,28.0029,118.9721c43.44,15.1514,80.7617,53.1983,105.9082,108.3448,47.4195,103.9819,60.1758,291.1816-46.2329,504.729a14.76538,14.76538,0,0,1-13.6304,8.3081c-3.6157-.0464-361.9043-4.8902-419.0234-.0513-43.2227,3.6621-100.7739,55.1709-119.3042,74.7095a15.01757,15.01757,0,0,1-10.8887,4.6826H2141.7698a15.00131,15.00131,0,0,1-13.7793-20.9278c28.5572-66.3964,64.773-251.3427,35.9278-342.2216-6.2232-19.6094-24.4336-35.6079-54.1236-47.5562-79.5385-32.0093-210.8276-22.8613-244.2431-4.6704-30.3516,16.5137-62.8638,143.208-76.3306,228.1958C1775.1268,3028.2139,1719.7874,3101.9346,1620.2928,3101.9346Zm-13.3448-30.4908c62.4512,4.5582,135.5103-14.7241,152.4463-197.4584.0293-.3199.0708-.6373.1197-.9546,5.7837-36.6187,37.3755-220.7862,91.6992-250.3418,42.9419-23.3667,183.8379-31.3892,269.7803,3.1909,38.3935,15.4492,62.456,37.7612,71.5185,66.311,29.8779,94.126-.7593,261.1377-28.9355,342.2266h447.4389c17.2364-17.1387,78.8208-74.6118,133.9502-79.2847,53.9356-4.5727,353.7793-.9399,412.4805-.1782,97.2876-200.8716,83.5693-378.5352,41.6455-470.4688-23.3228-51.1425-57.6318-84.8535-96.6113-94.9243a15,15,0,0,1-11.2378-14.0063c-.0195-.5396-2.2949-56.0498-26.7896-120.1197-26.5747-69.4995-308.0615-511.1474-402.8271-546.6821-103.9063-38.9673-670.4028-70.0171-1023.3301-30.8728-1.4551.188-170.1245,22.8101-238.2886,124.3591-70.8545,105.5591-207.9931,545.0562-209.3701,549.4849a15.00312,15.00312,0,0,1-13.6523,10.5298c-4.6411.2075-464.9854,21.0376-554.5533,45.5957-79.3139,21.748-160.8813,139.436-202.9736,292.8491-32.2803,117.6538,41.3281,208.5156,69.0381,242.7197,2.7393,3.379,4.9316,6.0865,6.6553,8.3692,46.8994,12.6709,479.3432,55.2588,767.6733,83.6523,97.2656,9.5801,181.2695,17.8516,243.0347,24.187,32.8491,3.3692,56.7724,5.9229,73.1372,7.8052,8.7598,1.0083,15.5566,1.8482,20.166,2.5A54.83907,54.83907,0,0,1,1606.948,3071.4438Z"/><path class="cls-10" d="M1896.3133,2378.9609q-1.50885,0-3.02-.0366l-717.3291-16.6601a14.99921,14.99921,0,0,1,.6982-29.9903l717.3267,16.6602a96.85286,96.85286,0,0,0,94.2016-65.7691l158.7964-465.6958a31.21752,31.21752,0,0,0-2.6123-26.1596,31.9275,31.9275,0,0,0-21.6968-15.2759c-194.4995-36.6016-647.5219-33.8867-725.6762,29.4971a15,15,0,1,1-18.8965-23.3008c93.2519-75.6275,566.2768-70.2771,750.1196-35.6787a61.75252,61.75252,0,0,1,47.1558,80.6006l-158.7964,465.6958A126.63261,126.63261,0,0,1,1896.3133,2378.9609Z"/><path class="cls-12" d="M2289.7853,2257.2694c-17.0335,53.3569,57.7686,108.5678,114.5454,84.7934,201.8256-133.0214,221.2277-428.6496,296.7318-609.6974a216.44253,216.44253,0,0,1,140.4736-124.9473c16.7994-4.7703,34.6123-8.973,52.96-12.8759,32.3553-32.3554-6.4285-138.0819-60.9918-127.934q-75.1263,12.20535-138.183,43.2709a216.82048,216.82048,0,0,0-102.0097,105.2169C2501.4748,1817.8418,2482.3267,2107.2272,2289.7853,2257.2694Z"/><g class="cls-13"><path class="cls-14" d="M2686.5335,1514.4421c6.3175-2.6763,27.9625,26.9182-9.9714,99.4389s-95.5785,64.6767-92.9752,30.8508S2620.0385,1542.6118,2686.5335,1514.4421Z"/></g><path class="cls-15" d="M2894.4809,1594.5486c-18.3502,3.9001-36.1502,8.0999-52.9501,12.85a216.4305,216.4305,0,0,0-140.4502,124.95c-75.4999,181.0501-94.8999,476.7001-296.7499,609.7-43.8501,18.3502-98.3999-10.3-113.15-48.8999,23.2001,15.1999,53.7,21.3501,80.25,10.25,201.8499-133.05,221.25-428.6499,296.7501-609.7a216.3019,216.3019,0,0,1,140.4499-124.95c16.7999-4.8001,34.6499-8.9999,52.9501-12.9001,16.9998-16.9998,14.4-54.1498.1498-84.1998C2899.9808,1492.9986,2920.8807,1568.1487,2894.4809,1594.5486Z"/><path class="cls-10" d="M2375.4856,2362.7695c-28.5961,0-55.8789-12.9077-73.9965-29.5019-25.0537-22.9517-34.7705-53.0689-25.9937-80.5615a14.99416,14.99416,0,0,1,5.0684-7.2681c128.2348-99.9292,177.7685-265.061,225.6689-424.7559,22.6929-75.6567,44.1284-147.1167,73.4155-211.7749a232.29438,232.29438,0,0,1,109.0723-112.4975c43.479-21.3147,91.3818-36.3233,142.3779-44.607,28.3057-5.2539,56.2769,12.2535,74.524,46.9178,18.1543,34.4763,23.8037,82.1045-.5176,106.4282a15.00637,15.00637,0,0,1-7.4878,4.0649c-20.0879,4.2725-37.0923,8.4058-51.9849,12.6343a200.28331,200.28331,0,0,0-130.7251,116.2903c-20.7202,49.6826-37.2192,108.4131-54.6899,170.5932-45.6787,162.5904-97.4536,346.875-247.6318,445.857a14.86273,14.86273,0,0,1-2.461,1.311A89.17413,89.17413,0,0,1,2375.4856,2362.7695Zm-72.456-96.8432c-2.898,15.0244,3.894,31.6333,18.7256,45.2197,17.4975,16.0303,48.4253,28.186,75.5469,17.583,139.8925-93.0518,189.9023-271.0327,234.0332-428.1128,17.7221-63.081,34.4628-122.6636,55.8813-174.0259a230.133,230.133,0,0,1,150.2222-133.6023c14.2529-4.0478,30.2758-7.9919,48.8403-12.0227,8.8208-13.5229,5.9473-43.2983-7.1997-68.269-4.4238-8.3984-20.5713-35.4822-42.8345-31.3403-48.4155,7.8686-93.4936,21.9775-134.3213,41.9921a202.2127,202.2127,0,0,0-94.9463,97.9371c-28.4594,62.8259-49.6142,133.3496-72.0092,208.0151C2486.2059,1991.8662,2435.7957,2159.9155,2303.0296,2265.9263Z"/><path class="cls-12" d="M2682.9806,1957.6986q-33.3,151.2003-85.8499,282.9001a69.08333,69.08333,0,0,1-84.3499,40.35l-141.2-43.0499a69.27716,69.27716,0,0,1-48.9502-63.7,67.38014,67.38014,0,0,1,1.7001-18.0502c22.3499-97.55,50.4001-191.6998,85.3501-281.6998a69.07062,69.07062,0,0,1,84.5999-40.8502l141.25,43.1002a69.22718,69.22718,0,0,1,47.4499,80.9998Z"/><g class="cls-13"><path class="cls-14" d="M2429.7372,1846.6409c64.3702,136.3972,15.3305,205.709-81.1915,246.934Z"/></g><path class="cls-15" d="M2682.9806,1957.6986q-33.3,151.2003-85.8499,282.9001a69.08333,69.08333,0,0,1-84.3499,40.35l-141.2-43.0499a69.27716,69.27716,0,0,1-48.9502-63.7c2.9001,1.5998,5.8502,3.2499,8.8001,5,243.3999,142.3999,346.7001-265.4501,346.7001-265.4501A68.90816,68.90816,0,0,1,2682.9806,1957.6986Z"/><path class="cls-10" d="M2532.7049,2298.9072a83.29819,83.29819,0,0,1-24.3213-3.6279h0L2367.2264,2252.23a84.54092,84.54092,0,0,1-57.5074-99.4361c23.1861-101.1328,52.107-196.604,85.9668-283.7597,15.813-40.7007,61.0376-62.5611,102.9517-49.7827l141.2915,43.0908c41.7334,12.727,67.0752,56.04,57.6953,98.6035-22.1118,100.3442-51.2353,196.3013-86.5552,285.2051C2598.1785,2278.5923,2566.3548,2298.9072,2532.7049,2298.9072Zm-15.5713-32.3242c26.7847,8.1616,55.791-5.6763,66.0547-31.5088,34.7265-87.4096,63.3716-181.8115,85.1391-280.5835a54.45224,54.45224,0,0,0-37.1484-63.4521l-141.2915-43.0908c-26.9946-8.2349-56.0815,5.8056-66.2378,31.9506-33.335,85.8057-61.8286,179.8755-84.6875,279.5996a54.43441,54.43441,0,0,0,37.0142,64.0357Z"/><g class="cls-16"><circle class="cls-17" cx="2411.45437" cy="2167.87485" r="19.55189" transform="translate(-675.73035 3159.88494) rotate(-59.7691)"/><circle class="cls-17" cx="2434.1233" cy="2093.57497" r="19.55199" transform="translate(-756.99128 2446.84559) rotate(-47.0158)"/><path class="cls-17" d="M2462.4979,2000.5742a19.55193,19.55193,0,1,1-24.4066,12.9952A19.55188,19.55188,0,0,1,2462.4979,2000.5742Z"/><circle class="cls-17" cx="2479.46115" cy="1944.97522" r="19.55188" transform="translate(-387.82042 637.5531) rotate(-13.59984)"/><circle class="cls-17" cx="2533.57103" cy="2205.13268" r="19.55196" transform="matrix(0.57329, -0.81935, 0.81935, 0.57329, -725.68542, 3016.82206)"/><circle class="cls-17" cx="2556.23992" cy="2130.83283" r="19.5519" transform="translate(-536.71638 3359.01538) rotate(-61.47148)"/><circle class="cls-17" cx="2578.90885" cy="2056.53292" r="19.55188" transform="translate(-411.26374 664.06518) rotate(-13.59985)"/><circle class="cls-17" cx="2601.57778" cy="1982.23308" r="19.55194" transform="translate(-483.08363 894.88819) rotate(-17.88746)"/><circle class="cls-17" cx="2483.84715" cy="2149.35382" r="19.55188" transform="translate(-435.75487 644.31476) rotate(-13.59984)"/><circle class="cls-17" cx="2506.51608" cy="2075.05395" r="19.55189" transform="translate(-548.33333 3195.93165) rotate(-59.7691)"/><circle class="cls-17" cx="2529.185" cy="2000.75408" r="19.55199" transform="translate(-658.83996 2486.85124) rotate(-47.0158)"/><circle class="cls-17" cx="2551.85392" cy="1926.45423" r="19.5519" transform="translate(-359.44472 3248.39392) rotate(-61.47149)"/></g><circle class="cls-15" cx="2403.95658" cy="2156.22198" r="19.55194" transform="translate(-546.07672 842.5995) rotate(-17.88746)"/><circle class="cls-15" cx="2426.62547" cy="2081.92207" r="19.55195" transform="matrix(0.99765, -0.06855, 0.06855, 0.99765, -137.01136, 171.24761)"/><path class="cls-15" d="M2455.0001,1988.9213a19.55193,19.55193,0,1,1-24.4066,12.9953A19.552,19.552,0,0,1,2455.0001,1988.9213Z"/><circle class="cls-15" cx="2471.96332" cy="1933.32233" r="19.5519" transform="translate(-407.21403 3181.79165) rotate(-61.47149)"/><circle class="cls-15" cx="2526.07318" cy="2193.47977" r="19.55199" transform="translate(-792.12519 1766.91349) rotate(-33.64355)"/><circle class="cls-15" cx="2548.74212" cy="2119.17993" r="19.55192" transform="translate(-332.2701 480.04035) rotate(-10.10468)"/><circle class="cls-15" cx="2571.41103" cy="2044.88005" r="19.55188" transform="translate(367.14683 4481.0468) rotate(-86.35394)"/><circle class="cls-15" cx="2594.07998" cy="1970.58017" r="19.55194" transform="translate(-479.86687 892.02192) rotate(-17.88746)"/><circle class="cls-15" cx="2476.34933" cy="2137.70093" r="19.5519" transform="translate(-584.48566 3292.4132) rotate(-61.47149)"/><circle class="cls-15" cx="2499.01828" cy="2063.40108" r="19.55194" transform="translate(-512.97178 867.31067) rotate(-17.88746)"/><circle class="cls-15" cx="2521.68718" cy="1989.10117" r="19.55199" transform="translate(-679.6291 1730.25019) rotate(-33.64355)"/><path class="cls-15" d="M2550.0618,1896.1004a19.55193,19.55193,0,1,1-24.4066,12.9953A19.552,19.552,0,0,1,2550.0618,1896.1004Z"/><circle class="cls-18" cx="2408.34258" cy="2159.65042" r="19.5519" transform="translate(-803.07476 2548.24099) rotate(-48.78317)"/><circle class="cls-18" cx="2431.01148" cy="2085.35058" r="19.55195" transform="translate(-137.2361 171.55638) rotate(-3.93082)"/><circle class="cls-18" cx="2453.68043" cy="2011.05067" r="19.55196" transform="translate(-600.75421 2868.54791) rotate(-55.01972)"/><circle class="cls-18" cx="2476.34933" cy="1936.75082" r="19.5519" transform="translate(-407.93501 3187.43608) rotate(-61.47149)"/><circle class="cls-18" cx="2530.45918" cy="2196.90828" r="19.55195" transform="translate(-144.64966 178.63617) rotate(-3.93082)"/><path class="cls-18" d="M2558.8338,2103.9075a19.55193,19.55193,0,1,1-24.4066,12.9952A19.55189,19.55189,0,0,1,2558.8338,2103.9075Z"/><circle class="cls-18" cx="2575.79703" cy="2048.30853" r="19.5519" transform="translate(-453.99551 3333.08684) rotate(-61.47148)"/><circle class="cls-18" cx="2598.46598" cy="1974.00865" r="19.55189" transform="translate(-415.37543 3225.2063) rotate(-59.7691)"/><circle class="cls-18" cx="2480.73532" cy="2141.12942" r="19.5519" transform="translate(-585.20659 3298.05775) rotate(-61.47149)"/><circle class="cls-18" cx="2503.40427" cy="2066.82953" r="19.5519" transform="translate(-700.82833 2588.08826) rotate(-48.78317)"/><circle class="cls-18" cx="2526.07318" cy="1992.52967" r="19.55195" transform="translate(-130.64935 177.8546) rotate(-3.93082)"/><path class="cls-18" d="M2554.4478,1899.5289a19.55193,19.55193,0,1,1-24.4066,12.9952A19.55189,19.55189,0,0,1,2554.4478,1899.5289Z"/><path class="cls-32" d="M3880.8807,1019.1093s-117.7757-34.1258-183.9464,29.548-27.4672,115.2787,9.1557,125.6829,51.4804-15.3983,44.8839-48.2756c0,0,48.1297,81.361-18.0411,154.3985s-192.8941-20.6003-252.1981-16.2305-57.7433,51.8129-49.9402,73.6618,59.304,25.2822,73.6618,0c0,0-4.3463,126.099-129.4166,141.0811,0,0-71.3847,5.8264-81.7889,17.4791s3.3293,47.027,60.7607,22.4731c-65.7547,119.0242-418.7231,94.054-418.6656-85.7307,0-175.6231,169.2285-205.4405,279.6652-135.5395,69.5002,46.8956,147.7208,23.14,128.18-72.5448-7.0465-62.7467,29.375-99.391,106.2074-77.9662,52.4968,14.6388,107.6174-12.4588,128.8151-62.667,13.4305-31.8112,32.299-67.6489,82.4399-103.3656C3720.6559,938.3727,3837.7089,963.3464,3880.8807,1019.1093Z"/><path class="cls-10" d="M3174.2625,1604.3906a387.9701,387.9701,0,0,1-95.7764-11.8139c-97.4804-25.1538-155.664-84.7364-155.6396-159.3836,0-74.1833,29.8144-131.4551,83.9526-161.2585,61.0816-33.6267,147.439-27.5354,214.8975,15.1611,33.6841,22.7222,69.414,27.8101,91.333,13.158,18.5815-12.4231,24.9438-38.2203,17.915-72.6392q-.11355-.5493-.1758-1.106c-3.9819-35.4565,4.5972-63.2922,24.8072-80.5004,15.3393-13.0591,44.6509-25.5469,97.1802-10.9021,46.1718,12.8833,95.1513-10.9815,113.9404-55.4883,14.7192-34.8548,35.4077-72.1448,86.7065-108.6841,68.3814-48.7158,191.6919-18.4656,237.3609,40.5237a12.49938,12.49938,0,0,1-13.3496,19.6618h0c-1.1109-.3198-111.7212-31.2817-171.814,26.5455-25.4199,24.4616-36.062,48.5827-30.7739,69.7558,4.6484,18.6206,20.769,30.9436,34.6801,34.8963,7.5757,2.1496,17.8907,3.5192,24.0577-2.1814,6.0717-5.6116,8.0004-17.4292,5.1538-31.6114a12.50071,12.50071,0,0,1,23.0151-8.8244c.5273.8935,51.9922,90.2038-19.5386,169.1565-49.3481,54.4763-125.7885,27.677-187.207,6.1438-28.7305-10.0733-55.8423-19.5752-73.335-18.3008-17.8247,1.3135-30.1416,7.0129-36.604,16.9409-8.5571,13.1445-5.5859,31.3586-2.4804,40.0488,1.3354,3.7415,8.8086,8.2422,20.0268,9.2176,13.8404,1.2097,26.5698-3.3973,30.9912-11.1854a12.49983,12.49983,0,0,1,23.3618,6.6041c-.0463,1.3671-6.267,136.9921-140.4223,153.0615-34.0357,2.7929-67.2852,8.9013-73.9819,13.5083a6.83313,6.83313,0,0,0,2.1142,5.4114c5.2149,5.5676,19.624,7.7343,44.4385-2.8724a12.50141,12.50141,0,0,1,15.8569,17.5391C3334.8289,1579.5005,3255.3782,1604.387,3174.2625,1604.3906Zm-77.876-329.1943c-27.9614,0-54.8095,6.1291-77.5293,18.6377-46.4551,25.5749-71.0107,73.7659-71.0107,139.3628-.0293,90.1147,95.7178,124.5495,136.8848,135.1721,89.4091,23.0701,185.852,9.6374,234.5898-28.5278h-.0195c-21.9629.0012-32.3072-11.1438-35.6836-15.8435-8.1934-11.4063-8.064-26.4905.31-35.868,11.9458-13.3813,61.5747-19.2846,90.0952-21.6125,78.7403-9.4385,104.9488-66.4221,113.6451-101.4893a70.52233,70.52233,0,0,1-27.2388,2.7845c-20.5127-1.7835-36.3794-11.637-41.4063-25.7142-6.0546-16.9494-7.9028-42.1643,5.0757-62.0983,7.5269-11.5613,23.3008-25.8448,55.7178-28.2325,22.605-1.665,50.8252,8.2032,83.4424,19.6399,57.2803,20.0818,122.1997,42.8406,160.4101.6641,30.7959-33.9929,34.1846-70.1428,30.2662-97.1448a39.0262,39.0262,0,0,1-3.4034,3.5694c-8.1054,7.4902-22.9785,14.9389-47.8564,7.8686-25.4346-7.2253-45.8862-27.9846-52.1045-52.8882-5.2856-21.1682-3.0371-54.6301,37.6953-93.8269,43.8037-42.1472,106.8286-45.0818,149.5508-40.8862-49.2066-29.0698-125.896-38.8233-169.9097-7.4683-48.5351,34.5716-65.8032,68.7366-78.1787,98.0469-23.6694,56.0596-85.4565,86.084-143.6865,69.8462-33.2056-9.2603-58.8818-7.2339-74.2603,5.8545-17.0044,14.48-18.247,39.4958-16.228,58.1409,12.1362,60.3552-12.7051,87.2058-28.6304,97.8527-30.3906,20.3223-77.0678,15.2149-118.9038-13.0175C3173.762,1286.3376,3134.0672,1275.1963,3096.3865,1275.1963Z"/><path class="cls-33" d="M3229.1609,1530.1642c-211.6205,25.6451-274.0469-156.6874-133.5901-196.0153,86.563-22.057,89.8924,52.8534,218.4884,16.2305,43.2362-16.9576,69.3918-53.0119,64.7513-123.4973a42.98106,42.98106,0,0,1,1.2759-14.7492c9.5802-33.2146,42.5054-47.9017,120.8325-26.5561,54.7686,17.8078,90.9187-19.7281,118.1919-83.6499-.1954,64.2555,27.7086,102.9065,89.4762,110.7008-17.0299,50.9841-95.3165,42.8711-199.806,9.4789-44.5773-14.2458-92.2126,13.0095-102.025,58.7674-4.3728,20.3914-5.6936,43.2227-7.3822,65.7599,0,0-9.5719,38.2875,56.5989,36.2067,0,0-57.8474,45.7785-165.635,37.4551S3172.9782,1500.6162,3229.1609,1530.1642Z"/><path class="cls-32" d="M2719.4185,910.8719s-117.7757-34.1258-183.9464,29.5479-27.4672,115.2787,9.1557,125.6829,51.4804-15.3982,44.8839-48.2755c0,0,48.1297,81.3609-18.0411,154.3985s-192.8941-20.6003-252.1981-16.2306-57.7433,51.813-49.9402,73.6618,59.304,25.2823,73.6618,0c0,0-4.3463,126.0991-129.4166,141.0812,0,0-71.3847,5.8263-81.7889,17.479s3.3293,47.027,60.7607,22.4732c-65.7547,119.0241-418.7231,94.054-418.6656-85.7307,0-175.6232,169.2285-205.4405,279.6652-135.5395,69.5002,46.8955,147.7208,23.1399,128.18-72.5448-7.0465-62.7467,29.375-99.3911,106.2074-77.9662,52.4968,14.6388,107.6174-12.4589,128.8151-62.6671,13.4305-31.8112,32.299-67.6488,82.4399-103.3655C2559.1937,830.1352,2676.2467,855.109,2719.4185,910.8719Z"/><path class="cls-10" d="M2012.8001,1496.1533a387.9701,387.9701,0,0,1-95.7764-11.8139c-97.4804-25.1539-155.664-84.7364-155.6396-159.3836,0-74.1833,29.8144-131.4551,83.9526-161.2585,61.084-33.6316,147.4439-27.5354,214.8975,15.1611,33.6889,22.7234,69.4189,27.8064,91.333,13.158,18.5815-12.4244,24.9438-38.2215,17.915-72.6404q-.11355-.5493-.1758-1.106c-3.9819-35.4553,4.5972-63.291,24.8072-80.4992,15.3393-13.0591,44.6484-25.5469,97.1802-10.9021,46.1792,12.8772,95.1489-10.9815,113.9404-55.4883,14.7192-34.8548,35.4077-72.1448,86.7065-108.6841,68.3789-48.7134,191.6895-18.4668,237.3633,40.5225a12.50078,12.50078,0,0,1-13.352,19.6618h0c-1.1133-.3198-111.7188-31.2805-171.814,26.5466-25.4199,24.4605-36.062,48.5816-30.7739,69.7547,4.6484,18.6206,20.769,30.9448,34.6801,34.8974,7.5733,2.1509,17.8882,3.5193,24.0577-2.1813,6.0717-5.6116,8.0004-17.4292,5.1538-31.6114a12.50071,12.50071,0,0,1,23.0151-8.8244c.5273.8935,51.9922,90.2038-19.5386,169.1552-49.3481,54.4764-125.7861,27.6795-187.207,6.1438-28.7329-10.072-55.8569-19.5861-73.335-18.3007-17.8247,1.3134-30.1391,7.0141-36.604,16.9421-8.5571,13.1445-5.5859,31.3586-2.4804,40.0488,1.3354,3.7415,8.8086,8.2434,20.0293,9.2188,13.7963,1.1926,26.5649-3.3985,30.9887-11.1853a12.49962,12.49962,0,0,1,23.3618,6.6027c-.0463,1.3672-6.267,136.9922-140.4223,153.0616-34.0357,2.7929-67.2852,8.9013-73.982,13.5083a6.83348,6.83348,0,0,0,2.1143,5.4113c5.2149,5.5665,19.6265,7.7344,44.4385-2.8723a12.50141,12.50141,0,0,1,15.8569,17.5391C2173.3665,1471.2632,2093.9158,1496.1497,2012.8001,1496.1533Zm-77.876-329.1943c-27.9614,0-54.8095,6.1291-77.5293,18.6377-46.4551,25.5749-71.0107,73.7659-71.0107,139.3628-.0293,90.1147,95.7178,124.5495,136.8847,135.1721,89.4092,23.0713,185.8521,9.6362,234.5899-28.5278h-.0195c-21.9629.0012-32.3072-11.1438-35.6836-15.8435-8.1934-11.4063-8.064-26.4905.31-35.868,11.9458-13.3813,61.5747-19.2846,90.0928-21.6125,78.7427-9.4385,104.9487-66.4221,113.6475-101.4893a70.59967,70.59967,0,0,1-27.2364,2.7857c-20.5151-1.7835-36.3794-11.637-41.4087-25.7154-6.0546-16.9494-7.9028-42.1643,5.0757-62.0983,7.5244-11.5613,23.3008-25.846,55.7178-28.2337,22.6245-1.6943,50.8252,8.2044,83.4424,19.6399,57.2778,20.0818,122.1972,42.8418,160.4101.6641,30.7959-33.993,34.1846-70.1416,30.2662-97.1436a38.85776,38.85776,0,0,1-3.4034,3.5693c-8.1054,7.4891-22.9785,14.9378-47.8564,7.8687-25.4346-7.2266-45.8862-27.9871-52.1045-52.8894-5.2857-21.1682-3.0371-54.6289,37.6953-93.8257,43.8086-42.1545,106.8481-45.0842,149.5508-40.8874-49.1992-29.065-125.896-38.8257-169.9097-7.4671-48.5351,34.5716-65.8032,68.7366-78.1787,98.0469-23.6694,56.0596-85.4565,86.084-143.6865,69.8462-33.2056-9.259-58.8867-7.2363-74.2603,5.8557-17.0044,14.4788-18.247,39.4934-16.228,58.1372,12.1362,60.3577-12.7051,87.2083-28.6304,97.8552-30.3955,20.3223-77.0654,15.2124-118.9038-13.0175C2012.2996,1178.1003,1972.6048,1166.959,1934.9241,1166.959Z"/><path class="cls-33" d="M2067.6987,1421.9268c-211.6205,25.645-274.0469-156.6874-133.5901-196.0154,86.563-22.0569,89.8924,52.8534,218.4884,16.2306,43.2362-16.9576,69.3918-53.0119,64.7513-123.4973a42.98163,42.98163,0,0,1,1.2759-14.7493c9.5802-33.2145,42.5054-47.9016,120.8325-26.5561,54.7686,17.8079,90.9187-19.7281,118.1919-83.6499-.1954,64.2555,27.7086,102.9066,89.4762,110.7008-17.0299,50.9842-95.3165,42.8712-199.806,9.4789-44.5773-14.2457-92.2126,13.0095-102.025,58.7674-4.3728,20.3915-5.6936,43.2227-7.3822,65.76,0,0-9.5719,38.2875,56.5989,36.2066,0,0-57.8474,45.7786-165.635,37.4552S2011.516,1392.3788,2067.6987,1421.9268Z"/><path class="cls-10" d="M3102.7917,2389.6383c-105.7778-19.1352-216.7183,19.4488-297.1979,88.7639-83.4684,70.8617-139.5147,169.3788-179.0227,270.7686-4.2602,10.773-21.0199,5.2363-17.0961-6.4482,56.737-157.0018,161.7898-314.703,328.1093-368.018,55.1374-17.5763,114.7357-24.5246,172.0873-14.2675,19.6821,4.7141,12.9914,33.7494-6.8799,29.2012Z"/><path class="cls-10" d="M1628.6706,2649.5376c28.6291-61.2738,88.0079-155.2802,161.8887-161.9297,45.2076-4.3699,90.9428-4.0003,136.1816-3.1258,30.0998.8882,60.1651,2.4458,90.2705,5.0251,37.7247,3.8337,76.9279,7.2522,113.9018,19.1138,40.2131,13.3085,65.1588,51.3692,80.9183,87.9288a254.83449,254.83449,0,0,1,14.4534,44.2619,9.01628,9.01628,0,0,1-17.2969,4.9817c-16.3372-37.7697-36.2747-78.353-70.6918-101.1145-11.1937-6.9827-24.1301-9.8745-37.0279-12.7049-86.3079-14.8258-176.4047-16.2245-264.0465-15.4244-17.4182.4831-35.9017.7554-53.129,3.1392-56.1002,13.7336-107.9552,91.7781-139.4806,138.204-5.7301,9.4289-20.4974,2.0404-15.9416-8.3552Z"/><path class="cls-10" d="M2147.7195,2540.9873a10.00051,10.00051,0,0,1-10-10V2382.9722a10,10,0,0,1,20,0v148.0151A10.00044,10.00044,0,0,1,2147.7195,2540.9873Z"/><path class="cls-10" d="M2690.2692,2393.8725c-39.7552,131.7646-86.621,261.2056-131.3582,391.3212a10.72976,10.72976,0,0,1-10.1694,7.2238c-56.0514-.8131-185.6849-.0765-239.9602-1.9488l-39.9943-1.0941c-13.3312-.5856-26.6623-.9622-39.9936-1.7251a6.00977,6.00977,0,0,1,0-11.9999c13.3313-.7629,26.6624-1.1395,39.9936-1.7251l39.9934-1.095c53.4812-1.5648,184.6191-1.5545,239.9611-1.9477l-10.1671,7.223c34.0324-97.4148,68.0831-194.8292,103.3646-291.8018,12.0157-32.2374,24.111-64.447,36.9989-96.3804,2.632-6.6291,13.4317-3.6339,11.3312,3.9499Z"/><path class="cls-34" d="M633.2161,2471.782l-49.6862,154.3422a38.19909,38.19909,0,0,1-36.2872,26.2657l-97.0597-9.0874a36.91536,36.91536,0,0,1-34.4602-50.1531l49.2247-128.1413a67.59952,67.59952,0,0,1,63.1036-43.3585h68.8778A38.199,38.199,0,0,1,633.2161,2471.782Z"/><path class="cls-10" d="M547.2435,2667.3887q-.6996,0-1.399-.0659l-96.4209-9.0259a51.91423,51.91423,0,0,1-47.7026-70.5249l49.2261-128.1421a83.0818,83.0818,0,0,1,77.1045-52.981h68.8769a53.20252,53.20252,0,0,1,50.5542,69.7681l-49.6753,154.3042A53.12114,53.12114,0,0,1,547.2435,2667.3887Zm-19.1919-230.7398a52.90192,52.90192,0,0,0-49.0992,33.7378l-49.2285,128.1421a21.91446,21.91446,0,0,0,20.459,29.773q.69945,0,1.3989.0659l96.2769,9.0136a23.149,23.149,0,0,0,21.4209-15.9423l49.6582-154.253c.0073-.0293.0171-.0586.0268-.0879a23.2,23.2,0,0,0-22.0361-30.4492Z"/><path class="cls-35" d="M582.8385,2531.87l-25.7436,80.5647a13.29011,13.29011,0,0,1-12.6081,9.0874l-72.9526-9.0874a13.29007,13.29007,0,0,1-12.1503-18.6748l19.7715-44.6125a12.87134,12.87134,0,0,1,2.8335-4.0933c6.8921-6.6098,33.3154-28.1056,87.6779-30.6845A13.30137,13.30137,0,0,1,582.8385,2531.87Z"/><g class="cls-13"><path class="cls-14" d="M476.6448,2509.9141s13.7779-54.2976,43.5832-59.5042,85.0945-12.3967,72.9457,18.3471S466.4255,2536.8969,476.6448,2509.9141Z"/></g><path class="cls-34" d="M1369.6061,2673.0546H1233.4986a37.27847,37.27847,0,0,1-37.2784-37.2785V2474.3283a28.5724,28.5724,0,0,1,28.5724-28.5724h117.7178a40.2811,40.2811,0,0,1,39.9492,35.121l19.9963,154.8119A33.12281,33.12281,0,0,1,1369.6061,2673.0546Z"/><path class="cls-10" d="M1369.6067,2688.0552H1233.4983a52.33764,52.33764,0,0,1-52.2778-52.2779V2474.3272a43.62073,43.62073,0,0,1,43.5718-43.5718h117.7173a55.41291,55.41291,0,0,1,54.8266,48.2007l19.9951,154.812a48.1209,48.1209,0,0,1-47.7246,54.2871Zm-144.8144-227.2998a13.5879,13.5879,0,0,0-13.5718,13.5718v161.4501a22.30167,22.30167,0,0,0,22.2778,22.2779h136.1084a18.127,18.127,0,0,0,17.9737-20.4444l-19.9951-154.812a25.34476,25.34476,0,0,0-25.0757-22.0434Z"/><path class="cls-35" d="M1262.0068,2545.5801c29.7599,4.4292,71.3353,15.5287,95.4482,43.3368a29.41541,29.41541,0,0,1,6.8736,17.4917h0a30.52687,30.52687,0,0,1-30.4674,32.4311h-76.4416a30.527,30.527,0,0,1-30.5269-30.5269v-32.5429A30.55045,30.55045,0,0,1,1262.0068,2545.5801Z"/><g class="cls-13"><path class="cls-14" d="M1228.7522,2497.8893s1.8595-25.8471,24.1736-29.3802,119.1942,2.0455,104.876,65.8265C1353.339,2557.0215,1225.0709,2520.2581,1228.7522,2497.8893Z"/></g><path class="cls-34" d="M1103.1153,2671.5328l-421.922-18.2009a36.27238,36.27238,0,0,1-33.5276-45.4212l35.0748-134.0378a36.27249,36.27249,0,0,1,35.5709-27.0868l374.4214,4.9552a36.27244,36.27244,0,0,1,35.6641,33.2199l12.4257,147.2836A36.27232,36.27232,0,0,1,1103.1153,2671.5328Z"/><path class="cls-10" d="M1104.68,2686.5659c-.7373,0-1.4722-.0171-2.2119-.0488l-421.9214-18.2007a51.2719,51.2719,0,0,1-47.3926-64.2017l35.0757-134.038a50.94766,50.94766,0,0,1,50.2783-38.2886l374.4214,4.956a51.08454,51.08454,0,0,1,50.4126,46.9581l12.4267,147.2802a51.2682,51.2682,0,0,1-51.0888,55.5835ZM717.827,2461.7832a21.2318,21.2318,0,0,0-20.5738,15.8862l-35.0757,134.0381a21.27093,21.27093,0,0,0,19.6631,26.6382l421.9214,18.2007a21.27313,21.27313,0,0,0,22.1143-23.0396l-12.4268-147.2827a21.19794,21.19794,0,0,0-20.9155-19.4848l-374.4214-4.9561Z"/><polygon class="cls-10" points="751.993 2618.078 708.318 2616.475 733.235 2485.938 774.68 2487.141 751.993 2618.078"/><polygon class="cls-10" points="831.172 2620.984 787.094 2619.366 807.981 2488.108 849.789 2489.322 831.172 2620.984"/><polygon class="cls-10" points="911.085 2623.916 866.598 2622.284 883.381 2490.297 925.556 2491.522 911.085 2623.916"/><polygon class="cls-10" points="991.742 2626.876 946.84 2625.228 959.444 2492.505 1001.991 2493.741 991.742 2626.876"/><polygon class="cls-10" points="1073.153 2629.864 1027.831 2628.201 1036.179 2494.733 1079.103 2495.979 1073.153 2629.864"/><path class="cls-24" d="M1560.1306,3134.1988c-372.2497,14.65-741.4999,2.1-1107.3999-41.4502a80.08972,80.08972,0,0,1-52.9001-29.1998c-21.5997-26.7502-53.6499-73.4003-74.4497-135.1001-1.1503-3.3999-2.2001-6.85-3.1-10.3-17.4002-63.9499-2.4002-140.5499,10.4498-186.9a47.19056,47.19056,0,0,1,53.9499-33.75c255.6003,46.85,689.3503,52.85,1155.6003,51.3998,0,0,2.8,6.5503,7.3999,17.5501,20.7998,49.8502,78.9999,191.7502,86.3,236.85C1644.9307,3058.3486,1560.1306,3134.1988,1560.1306,3134.1988Z"/><g class="cls-13"><path class="cls-14" d="M377.9671,2728.0959c310.9932,37.7466,671.3929,51.8378,1066.9583,49.0909l58.1657.3325-56.5289,37.6015c-424.8498,21.0245-791.8449,2.9464-1087.686-63.2233C362.7343,2740.3329,366.8693,2729.1698,377.9671,2728.0959Z"/></g><path class="cls-11" d="M1560.1306,3134.1988c-372.2497,14.65-741.4999,2.1-1107.3999-41.4502a80.08972,80.08972,0,0,1-52.9001-29.1998c-21.5997-26.7502-53.6499-73.4003-74.4497-135.1001-1.1503-3.3999-2.2001-6.85-3.1-10.3.0497.1001.0497.1499.0998.25,53.9999,133.2501,135.8502,135.4998,135.8502,135.4998,315.8499,33.0503,660.1498,44.7501,1023.5498,42.1503,0,0,49.1-37.7002,48.6002-66.4502-.3678-21.1756-26.4686-122.9561-40.2625-175.3623a50.97909,50.97909,0,0,1,16.7244-52.1888l42.7879-35.5989h.0501c20.7998,49.8502,78.9999,191.7502,86.3,236.85C1644.9307,3058.3486,1560.1306,3134.1988,1560.1306,3134.1988Z"/><path class="cls-10" d="M1267.8978,3154.9766c-278.5401.0024-552.2339-15.8301-816.9214-47.334a94.64653,94.64653,0,0,1-62.8369-34.6948c-23.418-29.0284-55.7764-76.836-76.9507-139.7364-22.666-67.3291-8.6499-149.165,7.0996-205.9619a61.79751,61.79751,0,0,1,71.1084-44.4946c258.081,47.3047,706.5869,52.5513,1152.8222,51.167h.0464a15.00119,15.00119,0,0,1,13.8037,9.1284c3.4913,8.208,85.608,201.6577,94.7217,257.8491,9.9512,61.3745-71.3672,136.1646-80.6714,144.4922a15.00757,15.00757,0,0,1-9.414,3.8086Q1413.6241,3154.979,1267.8978,3154.9766ZM378.0516,2711.7197a31.939,31.939,0,0,0-30.8521,23.545c-11.9751,43.186-28.8843,125.0854-7.5781,188.3764,19.7583,58.6963,49.9878,103.3472,71.8677,130.4688a64.80248,64.80248,0,0,0,43.0322,23.7426c353.6304,42.0923,723.5425,56.084,1099.5019,41.5845,23.8941-22.4951,73.0396-77.4463,67.1534-113.7353-7.4683-46.0596-72.2437-202.1851-88.8526-241.7505-444.3384,1.2964-889.7925-4.2969-1148.3374-51.6895h0A33.07657,33.07657,0,0,0,378.0516,2711.7197Z"/><path class="cls-19" d="M2934.7624,2558.09h185.6399a28.4739,28.4739,0,0,1,28.4739,28.4739v.0001a28.474,28.474,0,0,1-28.474,28.474H2934.7625a28.474,28.474,0,0,1-28.474-28.474v-.0001A28.4739,28.4739,0,0,1,2934.7624,2558.09Z"/><path class="cls-19" d="M3101.5593,2745.9471H2915.9195a28.47394,28.47394,0,0,1-28.474-28.474h0a28.474,28.474,0,0,1,28.474-28.474h185.6398a28.474,28.474,0,0,1,28.4739,28.474h0A28.47392,28.47392,0,0,1,3101.5593,2745.9471Z"/><path class="cls-10" d="M3120.4026,2630.0376H2934.763a43.4741,43.4741,0,1,1,0-86.9482h185.6396a43.4741,43.4741,0,1,1,0,86.9482Zm-185.6396-56.9482a13.4741,13.4741,0,0,0,0,26.9482h185.6396a13.4741,13.4741,0,1,0,0-26.9482Z"/><path class="cls-10" d="M3101.5599,2760.9482H2915.9202a43.4741,43.4741,0,0,1,0-86.9482h185.6397a43.4741,43.4741,0,0,1,0,86.9482ZM2915.9202,2704a13.4741,13.4741,0,0,0,0,26.9482h185.6397a13.4741,13.4741,0,0,0,0-26.9482Z"/><ellipse class="cls-10" cx="442.0089" cy="3011.70835" rx="17.93267" ry="27.40861" transform="translate(-1147.65583 415.8029) rotate(-23.13289)"/><circle class="cls-10" cx="1444.92537" cy="3063.9486" r="23.50122" transform="translate(-1077.68123 802.96512) rotate(-22.88243)"/><ellipse class="cls-10" cx="1434.0875" cy="2847.39715" rx="27.40861" ry="24.40232" transform="matrix(0.12648, -0.99197, 0.99197, 0.12648, -1571.82721, 3909.82561)"/><circle class="cls-10" cx="2205.61173" cy="2441.8562" r="10.78511"/><circle class="cls-10" cx="2503.40428" cy="2735.162" r="10.78514"/><circle class="cls-10" cx="2594.07998" cy="2441.8562" r="10.78514"/></g></g></svg>